<?xml version="1.0" encoding="UTF-8"?>
<svg id="Layer_1" xmlns="http://www.w3.org/2000/svg" version="1.1" viewBox="0 0 61.21 98.39">
  <!-- Generator: Adobe Illustrator 30.5.1, SVG Export Plug-In . SVG Version: 2.1.4 Build 3)  -->
  <defs>
    <style>
      .st0 {
        fill: #f15a29;
      }
    </style>
  </defs>
  <path class="st0" d="M61.21,33.96s-.1-.1-.18-.11c-.13-.01-.27-.01-.37.05-.15.09-.35-.03-.47.17-.04.09-.29-.1-.33.18,0,.01-.02.03-.03.04-.05,0-.09.02-.12.07-.08.03-.18.06-.25.08-.17.06-.35.17-.52.15-.19-.02-.23.1-.27.22-.11.02-.16.09-.19.18-.11,0-.23-.06-.29.1-.01.03-.02.06-.04.1-.07,0-.13,0-.16.1,0,.02-.01.03-.02.05-.04,0-.08-.02-.14-.05-.05-.04-.26.12-.34.23-.12.16-.24,0-.34.05-.28.16-.56.33-.86.46-.17.08-.33.18-.48.28-.13.09-.3.18-.36.31-.06.04-.11.09-.15.14-.1.02-.22-.05-.31.02-.15.12-.35.2-.52.31-.16.09-.3.21-.47.29-.15.07-.28.32-.5.11-.14.13-.27.28-.42.41-.06.05-.15.07-.22.1-.09.05-.19.08-.27.14s-.13.16-.24.03c-.02-.02-.21.04-.24.1-.03.06-.07.1-.11.13-.04.02-.08.04-.09.07,0,.01-.02.02-.02.03-.14.09-.31.16-.39.33-.07.05-.13.1-.18.17-.1.07-.22.14-.32.21-.14.1-.25.24-.46.17-.18-.06-.19.08-.23.2-.11-.02-.15.05-.18.14-.01,0-.03,0-.04,0-.17.12-.33.25-.5.37-.23.17-.46.35-.69.52-.11-.21-.21-.01-.29.03-.13.06-.23.17-.35.26-.16.13-.33.25-.5.37-.06.04-.16.05-.21.1-.32.34-.65.54-.99.73-.25.14-.5.34-.68.56,0,0,0,0,0,0-.07.06-.14.13-.2.2-.09.11-.06.23-.02.35-.07-.11-.1-.25-.14-.4-.21.12-.36.21-.52.31-.12.08-.23.16-.36.23-.06.03-.09.11-.14.16-.02.01-.04.03-.06.04-.01,0-.02.02-.03.03-.04.01-.08.02-.14,0-.11-.02-.26.04-.36.11-.28.17-.61.32-.78.56-.08.06-.15.13-.21.21,0,0,0,0,0,0-.17.12-.36.2-.49.38-.19.25-.56.39-.87.52-.14.06-.23.16-.31.27-.09.06-.15.14-.22.22-.56.36-1.16.66-1.74.98.02.03.03.05.05.07-.08.04-.16.09-.25.13.04.06.07.11.1.15-.04,0-.09,0-.12.03-.07.07-.12.1-.19,0-.05-.06-.11-.08-.04-.19.11-.16.11-.34-.01-.53-.05-.08-.05-.18-.06-.28.03-.03.04-.08.05-.12.13-.05.22-.12.23-.28.02-.18.04-.39.14-.53.12-.16.02-.32.05-.47,0-.05-.07-.14-.05-.16.1-.12.13-.25.14-.41.01-.1.22-.19.07-.32-.18-.16.17-.22.06-.38-.03-.05.07-.18.12-.27.08-.13-.22-.19-.05-.31.19-.14.19-.32.18-.52-.03-.82.23-1.57.49-2.33.03-.12-.38.09-.14-.19.07-.08.03-.21.06-.31.02-.02.04-.05.04-.08.02-.02.04-.05.08-.06.29-.11-.01-.3.05-.46.06-.17.04-.37.07-.56.04-.2.09-.4.13-.6,0-.06.03-.16,0-.19-.19-.15-.11-.35-.12-.54.33-.1,0-.32.09-.51.14-.29.17-.64.19-.98.01-.33.14-.66.11-1,.39-.2.05-.51.13-.76l.17-.61c.17-.13.14-.38.07-.47-.13-.15-.05-.2.04-.29.04-.04.09-.11.08-.14-.26-.53-.02-1.02.13-1.51.09-.3-.06-.65.17-.92.01-.01,0-.04,0-.06-.02-.26.03-.59.1-.74.04-.08.07-.21.04-.24-.27-.23.14-.53-.09-.75.19-.23.03-.58.16-.84,0,0,0,0,0,0,0,0,0,0,0,0,.04-.08.1-.14.2-.2.04-.01,0-.16.01-.25.04-.55.09-1.1.13-1.65.01-.1.2-.16.02-.3-.21-.17-.08-.43,0-.59.11-.23.1-.45.12-.68.04-.53-.12-1.07.12-1.59.04-.09.04-.25-.02-.31-.14-.15-.11-.23,0-.38.09-.12.07-.32.11-.48.04-.17.12-.35.13-.53.01-.15-.06-.3-.08-.45-.05-.48.15-.95.02-1.43-.02-.06.11-.18-.01-.28.1-.1.19-.19.05-.32-.1-.1.17-.26-.06-.33.12-.08.13-.2.13-.34s-.06-.3.09-.42c.17-.13-.19-.26.01-.42.09-.07-.02-.29.14-.4.02-.01-.12-.19-.1-.26.03-.09.16-.15.21-.24.03-.06.01-.17-.03-.22-.1-.15-.11-.27,0-.41.1-.14.08-.26-.01-.41-.05-.09-.07-.27-.01-.34.11-.14.06-.29.08-.43.04-.27-.07-.55.09-.82.15-.26-.06-.58.16-.86.08-.11.02-.34-.01-.51-.04-.2-.12-.39-.18-.58,0-.03,0-.06,0-.09,0-.01.02-.03.02-.04.25-.12.25-.35.31-.58.08-.3-.3-.64.09-.9,0,0-.04-.06-.05-.09-.04-.17-.07-.34-.1-.49-.27.19-.52.37-.77.54-.11-.11-.17-.17-.2-.2.21-.23.41-.46.62-.69.05.1.09.22.15.25.13.05.12-.11.18-.17,0-.01.01-.02.02-.03.13.05.12-.11.18-.17.15-.16.14-.28,0-.42.27-.23.07-.57.16-.85.08-.27-.03-.6-.05-.9-.01-.09-.01-.18-.04-.25-.12-.25-.39-.47-.11-.77-.27-.47-.14-1.06-.46-1.52-.01-.02-.01-.08,0-.09.19-.14-.09-.18-.06-.31.03-.13-.01-.27-.07-.42-.06-.16-.2-.36-.06-.6.08-.14.04-.38-.16-.51-.05-.03-.1-.17-.07-.21.13-.23,0-.45-.14-.49-.4-.1-.4-.73-.9-.66-.05-.39-.36-.18-.55-.21-.07-.01-.19.1-.24.18,0,.01,0,.03,0,.04-.07.02-.15.09-.19.16-.04.06,0,.17-.02.25-.01.08-.06.15-.07.23-.01.05.04.1.03.14-.01.06-.07.12-.08.19-.01.09-.01.18.01.26.06.17.04.33.01.51-.04.22-.06.45-.15.66.28.21.06.42,0,.62-.05.13-.17.33-.12.39.13.15.01.24-.01.36-.02.14.05.3-.08.43-.02.03.09.17.08.25-.01.11-.13.26-.09.32.26.41,0,.72-.17,1.03-.11.17-.02.32-.05.47-.01.06.07.15.05.17-.2.2-.08.45-.13.67-.08.35-.1.7-.22,1.03-.12.34.06.73-.17,1.05,0,.01,0,.05.02.06.18.08-.03.23.02.27.22.16-.14.22-.05.38.05.09.04.24-.07.36-.09.1-.07.75-.05.92,0,.01,0,.03,0,.04-.04.1-.07.19-.1.28-.03-.03-.07-.05-.1-.08-.07.18-.14.35-.19.52-.06.2-.04.44-.16.59-.16.2.16.34.02.49-.18.19-.12.4-.13.61-.01.25.06.53-.22.7-.03.02-.04.11-.04.17.05.58-.31,1.08-.33,1.64,0,.08.05.17.02.23-.17.41-.33.83-.45,1.26-.13.45-.28.89-.35,1.37-.07.47-.34.9-.37,1.42-.02.27-.15.59-.25.87-.11.29-.18.58-.3.86-.08.18-.13.38-.24.56-.12.2-.38.48-.15.79.01.01-.06.13-.14.25-.18-.14-.12.15-.24.13.03.02.06.04.09.06,0,0-.02.03-.02.03-.23-.23-.15.13-.27.11.19.1.31.28.24.37-.23.28-.24.65-.41.95-.09.16-.21.26-.14.51.05.16-.15.4-.23.6-.01.02,0,.05,0,.07.04.29-.1.51-.23.76-.14.26-.42.5-.3.86.01.03-.01.09-.04.11-.23.21-.35.47-.37.77-.34.2-.22.53-.25.82-.01.09-.11.17-.17.26-.25.36-.38.93-.35,1.39,0,.05,0,.1,0,.16,0,0-.01,0-.02,0-.04.07-.09.13-.14.19-.02,0-.03.01-.06.01-.26.41-.69.72-.73,1.26-.22.17.01.49-.26.69-.16.12-.16.45-.23.68-.01.03-.02.07-.02.11-.06.04-.1.1-.12.16-.22.11-.24.31-.25.54,0,.27-.16.53-.4.71,0,0,0,0,0,0-.01,0-.01.02-.02.03-.16.1-.23.22-.23.42,0,.18-.04.36-.08.55-.07.33-.28.55-.45.8-.13.2-.27.38-.25.62.03.38.02.44-.17.74-.04.07-.08.15-.09.23-.04.38-.1.41-.3.72-.05,0-.08-.07-.09-.06-.07.07-.11.15-.16.23-.02-.02-.03-.04-.04-.03-.09.09-.14.2-.2.31.1.06.11.25.34.1.16-.11.48-.08.73.03-.03.07-.06.14-.08.2-.09-.11-.16.1-.22.04-.29-.3-.54.04-.82.03-.04-.01-.13.05-.13.09,0,.04-.02.07-.03.11-.01,0-.03,0-.04,0-.04-.01-.13.05-.13.09-.02.19-.09.33-.19.45-.13.09-.26.18-.41.25-.05.03-.08.09-.16.18-.01,0-.03.02-.04.02-.05.03-.08.09-.16.18.11.07.22.14.32.2-.07.15-.11.27-.17.37-.11.04-.23.02-.35.03,0-.16-.34-.22-.11-.44-.18-.21,0-.45.05-.6.09-.24-.1-.42-.02-.62.12-.29.1-.54-.12-.77,0,0,.07-.09.11-.14-.14-.07-.29-.15-.44-.22.05-.04.09-.08.12-.13.21-.12.3-.34.31-.56.04-.54.01-1.09.01-1.64,0-.16.06-.35-.13-.47.22-.07-.01-.24.09-.38.28-.4.14-.87.17-1.31-.22-.21-.07-.4-.02-.62.05-.23.33-.49.02-.75-.01-.01.02-.14.06-.16.25-.13.06-.3.07-.46.03-.62.09-1.23.13-1.85.29-.12-.14-.49.2-.6.02-.01.04-.08.03-.09-.23-.19-.01-.46-.14-.67-.02-.04-.06-.12-.04-.14.27-.34.34-.74.35-1.17,0-.13.13-.32.08-.38-.15-.17-.07-.26.04-.38.03-.03.02-.13,0-.19-.09-.3-.15-.57.1-.84.07-.07.02-.25.03-.38.01-.15-.03-.33.04-.44.16-.25.1-.51.08-.75-.02-.29.02-.49.15-.67.06-.04.11-.09.19-.13,0-.02,0-.04-.01-.06.06-.05.12-.1.21-.14,0-.37-.32-.61-.39-.95.08-.12.24-.29.21-.33-.09-.13-.09-.2.01-.33.09-.12.13-.29.17-.45.03-.14.05-.28.06-.43.02-.14.02-.27.02-.41,0-.12-.04-.24-.02-.36.02-.13.09-.26.13-.4.07-.26.17-.51.2-.77.04-.39-.07-.81.26-1.14,0,0-.08-.07-.07-.09.08-.35.12-.72.29-1.02.11-.19.2-.36.18-.58-.01-.13-.06-.31.01-.38.24-.28-.01-.45-.11-.65-.14-.29-.39-.51-.48-.85-.11-.43-.33-.83-.54-1.22-.22-.41-.48-.81-.72-1.21-.04-.07-.09-.14-.15-.2-.38-.4-.66-.4-.91-.04-.12.07-.23.19-.33.41-.05.11-.14.26-.1.34.07.17-.2.21-.08.39.05.07-.04.24-.07.37-.04.14-.08.28-.13.41-.05.13-.07.28-.14.4-.12.21-.14.4-.07.65.05.18.01.48-.11.61-.32.35-.22.71-.16,1.08,0,.04.02.13.01.13-.25.1-.06.37-.23.53-.15.14-.28.36-.23.62.03.16-.02.29-.15.4-.06.04-.11.14-.11.21-.02.27-.01.53-.12.8-.11.27-.17.59-.13.86.06.37-.29.5-.34.79,0,.02-.02.03-.04.05.19.17-.11.32-.02.47.13.21-.26.31-.09.52.14.17-.09.31-.06.5.05.37.1.78-.25,1.07.1.16-.23.32,0,.49.02.01-.01.15-.04.16-.25.08-.15.32-.18.47-.04.22-.14.44-.15.66-.03.6-.09.93-.34,1.39-.03.05-.07.12-.06.17.07.54-.24,1.01-.27,1.53,0,.25-.4.43-.16.76.02.03-.19.18-.21.29-.02.1.09.22.11.34.02.1-.02.21-.04.31-.1.48-.36.92-.36,1.43-.01.14-.1.32-.21.43-.13.14-.2.27-.19.46,0,.09-.08.18-.13.27-.04.07-.14.18-.12.2.19.24-.1.45-.02.69.05.12.04.28-.02.4-.06.04-.13.08-.18.12,0,.02.02.03.02.05-.08.05-.16.1-.22.15.09.21.25.36.05.59-.13.15.03.41-.18.59-.18.15.1.4.01.61-.06.13.2.24.02.43-.06.06.02.25.07.42-.09.05-.17.12-.22.21-.17.1-.29.24-.26.5-.36.53-.23,1.16-.38,1.74-.07.26.05.57-.26.75.17.18-.03.25-.11.37-.07.1-.15.21-.17.32-.03.17.04.36-.03.51-.02.05-.07.09-.11.14-.02.02-.05.04-.07.06,0,0,0,0,.01,0-.07.06-.14.13-.21.19.13.05.21.08.28.11-.18.07-.12.27-.13.42-.01,0-.02,0-.03,0,0,.03,0,.05.01.07-.03.07-.08.12-.21.13.11.3-.39.48-.17.81-.17.13-.09.31-.13.47-.04.13-.04.27-.07.39-.08.29-.24.56-.31.85-.08.3-.37.52-.29.87.01.05-.09.13-.14.2,0,.01-.02.02-.03.03-.01.01-.02.02-.04.04-.15.15-.35.27-.32.56.02.25-.23.46-.05.77.06.11-.04.32-.1.51-.09-.09-.16-.13-.17.09,0,.03-.02.07-.03.11-.09-.09-.16-.14-.17.09,0,.04-.02.08-.03.11-.04.01-.09.02-.11.06-.01.02,0,.06,0,.1-.05.05-.17.04-.21.1-.03.05.05.16.02.22-.13.3-.36.54-.38.9-.01.18-.32.35-.31.51.01.27-.26.36-.27.55-.01.18-.23.37-.02.55-.11.11-.21.23-.31.34-.06.03-.13.06-.14.09,0,.03-.02.06-.02.09-.05.05-.17.07-.18.11-.05.38-.3.71-.22,1.14-.06.04-.12.1-.19.19-.07.05-.13.11-.2.2-.06.14-.08.3-.12.44-.19-.13-.26-.04-.33.14-.11-.02-.16.08-.22.24-.07.21-.17.42-.3.6-.22.29-.46.55-.69.83-.02.03.02.1.01.14-.07.17.03.34.06.49-.08-.01-.15-.02-.18,0-.07.06-.13.13-.19.2,0,0,0,0,0,0-.08.07-.16.16-.23.24-.04.03-.09.06-.14.08-.14.04-.19.12-.22.21-.32.11-.16.43-.35.57,0,0,0,.01,0,.02-.1.05-.17.12-.22.21-.28.17-.29.53-.43.79-.1.17-.19.34-.31.48-.11.09-.23.17-.39.21,0,.03.03.06.04.1-.07.04-.15.08-.24.1.02.07.08.16.06.19-.11.17-.29.28-.38.5-.08.05-.17.09-.24.13-.22.12-.37.24-.48.38-.13.09-.23.19-.29.31-.06.1-.07.24-.14.33-.07.08-.11.17-.16.26-.04.02-.07.05-.13.06-.17.04-.33.18-.45.32,0,0,0,.01,0,.02-.07.05-.14.12-.19.18-.12.13-.13.35-.25.48-.09.1-.16.21-.24.32-.06.04-.13.07-.21.09-.09.02-.18.1-.25.18-.15.16-.31.3-.46.45-.16.15-.32.31-.43.51-.18-.17-.17-.03-.18.11,0,.03-.02.06-.03.09-.16-.15-.16-.04-.17.09-.09.04-.14.14-.21.2,0,0,0,0,0,0-.03.03-.06.05-.1.05-.23,0-.4.13-.45.27-.11.05-.19.13-.21.22,0,.02-.02.02-.02.04-.06.03-.12.06-.17.11-.1.1-.26.14-.36.24-.45.45-1.04.67-1.54,1.03-.14.1-.18-.07-.23-.03-.06.05-.1.15-.15.22-.02-.02-.04-.03-.05-.02-.03.03-.06.07-.08.11-.12.03-.26-.01-.38.04-.17.07-.32.3-.39.25-.2-.15-.33.02-.41.08-.17.12-.34.04-.49.09-.09.03-.15.14-.22.2,0,0,0,0,0,.01-.08.04-.14.13-.2.19.05.14.11.25.14.37.07.28.36.03.46.2.17-.21.4-.08.6-.13.34-.08.71-.11.99-.29.24-.15.49-.29.74-.44.03-.01.06-.01.09-.01.03.08.05.15.07.2.08-.08.15-.17.24-.23.43-.27.88-.52,1.31-.79.12-.08.23-.24.35-.25.2-.02.34-.08.4-.24.05-.02.1-.05.13-.09.03,0,.06.02.1.03.26-.28.55-.55.94-.69.15-.05.27-.15.37-.3.12-.07.24-.17.3-.34.03-.08.09-.16.15-.24.04-.03.08-.08.12-.1.18-.08.3-.21.4-.35.11-.09.2-.19.26-.32.22.02.39-.04.5-.23.12-.05.21-.16.27-.35.01-.04.05-.07.08-.1,0,0,.02-.02.03-.03.02-.02.04-.05.06-.07.05-.04.1-.08.14-.13.15-.17.28-.35.25-.6,0,0,0,0-.01,0,0,0,0,0,0,0,0,0,.01,0,.02,0,0,0,0,0,0,0-.01,0,0,0,.03,0,0,0,0,0,0,0,.09,0,.18.06.28.07.1.02.2,0,.31-.01-.01-.08,0-.13.02-.18.06,0,.12,0,.18-.02-.02-.16.01-.26.07-.35.32-.23.6-.51.99-.64.06-.02.1-.1.14-.17.02,0,.04-.02.06-.03.06-.02.1-.1.14-.18.1-.05.22-.07.28-.14.02-.03.03-.07.04-.11.06-.02.12-.05.16-.09.06-.07.04-.19.06-.31.02,0,.03,0,.05,0,.16,0,.26-.1.28-.23.13-.03.22-.11.22-.24,0-.15.05-.24.15-.34.14-.14.25-.32.4-.44.05-.03.08-.08.11-.12.02-.01.04-.02.06-.03.09-.02.14-.11.2-.2,0,0,0,0,0,0,.09-.02.14-.11.2-.21,0,0,0,0,0,0,.06-.02.11-.09.15-.16.02-.01.03-.03.05-.04.11-.04.16-.19.23-.31.07-.06.15-.11.22-.18,0,0,0-.02,0-.04.07-.05.14-.1.2-.16.01-.01,0-.05-.01-.09.02-.02.03-.05.04-.08.12-.06.19-.14.24-.28.09-.25.22-.5.4-.68.16-.16.25-.39.38-.58.05-.03.08-.07.14-.09,0-.03,0-.05.01-.08.06-.05.11-.09.19-.12-.01-.09,0-.16.03-.21.08-.05.16-.11.22-.18.02-.02.02-.04.04-.06.06-.04.12-.08.16-.14.08-.09.13-.21.19-.31.1-.17.31-.36.3-.52,0-.05.01-.07.02-.11.07-.03.13-.06.17-.12.02-.03.04-.06.06-.09.06-.03.11-.05.14-.11.09-.16.25-.3.28-.47.01-.07.03-.14.05-.2.02,0,.03-.02.05-.02.04,0,.11-.08.1-.12,0-.02,0-.03,0-.05.03-.01.05-.03.09-.03.04,0,.11-.08.1-.12-.03-.18.06-.3.19-.38.17-.1-.18-.25.06-.34.03,0,.03-.04.05-.07.13-.08.25-.17.33-.28.2-.14.35-.34.31-.66,0-.04.01-.09.03-.14.04-.04.08-.08.1-.13.27-.13.25-.42.38-.61.09-.13.12-.32.23-.42.15-.14.25-.31.16-.45-.12-.2.27-.33.04-.5.11-.12.22-.25.33-.37.05-.05.1-.09.14-.14.11-.15.23-.3.32-.46.09-.15.15-.33.23-.49-.25-.17-.04-.32.01-.48.01-.03-.04-.07-.05-.11-.02-.07-.03-.15-.05-.22h.34c-.03-.07-.05-.13-.07-.2h.27c-.06-.18-.12-.34-.18-.5.02,0,.03.02.06.03.04-.09.08-.16.12-.24.03.01.04.03.08.04.05-.1.09-.19.14-.28-.13-.05-.25-.1-.38-.15.03-.05.05-.09.08-.13.05.01.11.05.22.12,0,.01,0,.02,0,.04.03-.02.05-.04.08-.06v-.02c.1-.06.18-.13.22-.22.28-.17.29-.51.44-.74-.08-.21-.34,0-.48-.15.12-.1.22-.18.31-.26.09-.07.15-.13.19-.19,0,0,0,0,.01-.01.29-.22.32-.36.05-.52-.12-.07-.2-.15-.26-.24.13.03.2-.02.36-.18.12-.11.23-.23.33-.33.41.27.59.56.42.87-.22.4.04.67.13.99.26.06-.02.32.15.42-.23.14.2.36-.06.51-.04.02-.03.11-.05.17.06-.02.12-.06.18-.05.03,0,.08.1.07.13,0,0,0,0,0,.01-.12.04-.18.11-.19.19-.26.07-.21.28-.19.46.02.12.13.23.2.35.09-.13.28-.16.33-.31.12-.08.25-.14.21-.35-.01-.06.04-.13.09-.2.04,0,.09.03.11.02.3-.09.68-.03.89-.28.17-.21.32-.11.46-.05.28.11.54.25.85.4-.02.03-.05.06-.07.09-.08.04-.14.11-.19.18-.18-.12-.36-.24-.53-.35-.06.08-.15.14-.18.22,0,0-.02-.01-.02-.02-.02.02-.04.04-.06.06,0,0,0,0,0,0,.02-.04-.01-.12-.04-.17-.01-.02-.09-.04-.11-.02-.04.02-.09.07-.1.12,0,.03,0,.06,0,.09-.02-.02-.08-.03-.1-.01-.04.02-.09.07-.1.12-.01.07,0,.16,0,.33.1-.1.16-.15.2-.2h0c.06-.05.09-.09.13-.12-.04.06-.04.13.07.23.06.05.07.15.1.22.09.21.22.04.36-.03l-.02-.02s.05-.04.04,0c.05-.05.08-.02.08-.02-.02.03-.04.05-.06.08h0c.03.15.09.28.14.4-.04.02-.09.04-.13.06v.1s-.06.03-.09.04c-.01-.02-.03-.03-.04-.05.04-.03.09-.07.13-.1-.08-.32-.4-.35-.56-.25-.47.29-.82-.11-1.25-.08-.03.05-.08.12-.1.2-.03,0-.07,0-.1,0-.05.1-.19.24-.04.46.08.1,0,.27.09.42.06.1-.11.33-.05.43.32.54.4,1.2.85,1.68.12.13.2.35.17.58-.04.28.04.54.25.75.07.07.14.19.13.27-.03.23.2.29.25.41.12.31.21.18.35.05.21.24.31.02.32-.11.13.05.19-.11.2-.21,0-.07.02-.15.04-.21.16-.06.25-.15.28-.24.31-.17.25-.46.14-.74,0,0,0,0,0,0,.08.07.15-.02.21-.1.02-.03.04-.05.05-.08.06,0,.1-.06.15-.12.12-.17.26-.34.3-.53.07-.35.42-.51.52-.83.06-.03.07-.09.08-.15.01-.01.03-.03.04-.03.1.01.12-.03.14-.08.05,0,.07-.03.02-.09,0-.03.02-.06.05-.07.07-.05.27,0,.13-.16.01,0,.02-.01.03-.02.04-.03.08-.08.09-.12.04-.03.08-.05.11-.08.05-.04.11-.1.1-.15-.03-.23.07-.39.21-.57.11-.15.09-.4.28-.54.06-.04.03-.19.04-.29-.15-.05-.28-.11-.42-.14-.11-.03-.24.1-.33-.05-.05.03-.09.08-.1.14.01.02.02.03,0,.03.05.05.02.08.02.08-.03-.02-.04-.03-.07-.05,0,0-.02.01-.03.02,0,0-.01,0-.02-.02-.04.03-.07.06-.09.1-.03.03-.06.06-.08.09-.04-.08-.09-.17-.14-.27.09-.03.18-.07.28-.11,0-.04,0-.08,0-.12.07-.03.13-.05.21-.08-.05-.19.09-.42-.09-.64,0,0,0-.03,0-.05.02,0,.05.01.07.02.07.03.14.06.24.09v.42c.22.1.41.19.6.28.02-.02.04-.05.06-.07-.09-.08-.17-.17-.28-.27.03,0,.06-.01.09-.01.11.05.22.1.33.15.02-.02.04-.05.06-.07-.05-.04-.1-.09-.15-.14.05-.03.11-.07.13-.12,0-.02,0-.03.01-.05.07-.02.16-.08.19-.15.03-.07.04-.15.05-.22.05,0,.1.03.13.03.06-.07.12-.14.16-.21.01,0,.03,0,.04.01.28-.29.39-.66.33-1.08,0-.03,0-.06.02-.09.03.02.07.05.1.09.06-.07.16-.15.16-.22,0-.01,0-.02-.01-.03.02.02.03.04.05.05.06-.07.16-.15.16-.22,0-.06-.09-.09-.01-.19.22-.28.3-.64.57-.89.01,0,.19-.12.07-.3-.1-.14.16-.3.11-.5.06-.05.11-.11.15-.17.16-.11.26-.29.37-.45.01,0,.02-.02.03-.03.03-.02.02-.03.03-.05.05-.06.1-.11.17-.15.12-.07.09-.15,0-.24-.03-.02.02-.15.06-.21.08-.11.24-.19.05-.34.04-.04.06-.11.08-.17.19.01.16-.19.24-.28.32-.37.42-.87.71-1.28.14-.21.37-.42.27-.74.21-.14.1-.42.29-.61.14-.14.34-.38.34-.55,0-.35.13-.62.32-.85.01,0,.02-.02.03-.03,0,0,0,0,0,0,.06-.07.13-.14.2-.2-.04-.06-.12-.14-.11-.15.38-.4.42-.96.64-1.44.12-.26.09-.47-.04-.66.06.04.11.1.19.12.03-.09.06-.19.09-.27.04.02.07.06.11.07.05-.13.06-.32.15-.39.17-.11.03-.26.1-.38.03-.06.05-.12.08-.19.06,0,.12-.02.18-.04h0s.05-.05.04,0c.05-.05.08-.02.08-.02-.02.03-.04.05-.06.08l-.03-.03c-.18.34.29.21.21.51l-.2.2-.2.2c.06.12.17.24.14.29-.23.43-.08.89-.12,1.33,0,.14-.02.28.07.43,0,.01,0,.02,0,.03-.02.02-.03.04-.04.07,0,0,0,0,0,0-.07.04-.17.08-.2.2-.08.33-.13.31.11.59.25.29.26.48,0,.76-.12.13-.26.23-.21.44-.26.22-.3.5-.27.81.01.06-.01.12-.03.18-.06.13-.22.9-.23,1.04-.02.27.09.55-.12.8-.04.04-.02.17.02.24.16.27.17.5-.01.77-.05.07,0,.2.03.34-.07.03-.12.08-.1.16-.15.04-.33.1-.1.39,0,.01-.04.06-.05.09-.11.31-.23.62-.2.97.01.11-.11.23-.11.34,0,.11-.26.18-.04.3-.07.09-.14.19-.21.29,0,.02.03.05.05.08.12.17.25.33.37.5.09-.09.17-.08.25-.05-.11.02-.21.18-.32,0-.05.09-.1.17-.14.25-.02-.01-.04-.02-.06-.05-.06.11-.14.21-.18.32-.02.08-.01.17,0,.26.02.28-.02.54-.13.8-.11.24-.29.52-.24.73.07.27-.11.5-.01.73.17.05.32.09.47.13.02-.06.05-.13.08-.21.07.04.12.07.2.12,0-.11,0-.21.01-.31.06.04.11.07.19.11,0-.2.01-.38.04-.54.02.01.05.02.08.05.05.06.2.06.21.1.03.12.03.23.18.2.11-.02.22-.06.29-.08.11.16.21.31.35.4,0,0,.01,0,.01,0,0,0,0,0,0,0,0,0,0,0,0,0,0,0,0,0-.01,0-.25,0-.47.06-.64.25-.15-.08-.3-.15-.46-.23-.03.11,0,.21.03.32-.08-.04-.15-.08-.23-.12-.06.24.11.45.12.66-.22-.11-.29-.35-.43-.5-.14.05-.21.13-.25.23-.17.08-.26.18-.24.37.05.36-.07.72-.2,1.03-.13.32.2.06.17.19-.08.14-.2.26-.23.41,0,.04-.02.06-.02.1-.04,0-.1-.03-.17-.07-.02,0-.17.11-.23.22-.07.04-.21.17-.24.26-.06.2-.1.41-.14.62-.17-.09-.32-.2-.38-.31-.03-.05-.09-.09-.12-.12-.16.1-.31.21-.47.29-.23.11-.41.25-.57.43-.12.09-.22.2-.32.32-.04.05-.09.1-.13.16-.16.14-.34.24-.57.26,0,.06.01.1.02.14-.07.03-.14.05-.22.06.03.18.04.28.04.36-.08-.15-.26-.19-.35-.13-.37.23-.71.52-1.06.78,0,.02,0,.02,0,.04-.07.05-.14.11-.21.16.03.06.02.09.02.13-.08.01-.17.02-.22.07-.09.08-.2.13-.31.19-.07.03-.12.11-.16.18-.01,0-.02.02-.04.02-.05.02-.09.07-.12.12-.04.01-.08.02-.14,0-.19-.06-.22.07-.25.19-.12-.02-.16.06-.19.16,0,0-.01,0-.02,0-.01,0-.04.17-.1.2-.05.03-.16-.05-.22-.02-.13.06-.32.13-.35.23,0,.02-.03.03-.04.06-.08.04-.15.09-.16.14-.03.11-.1.18-.16.26-.23.17-.48.31-.66.52-.07.05-.12.11-.18.18-.21.02-.34.3-.6.16,0-.01-.1.07-.09.09.02.05.05.1.07.14-.05.01-.11,0-.18-.03,0-.01-.1.07-.09.09.02.06.05.11.09.16-.04.03-.09.05-.13.09-.07.06-.14.13-.2.2,0,0,0,0,0,0-.08.07-.16.15-.22.23-.06-.05-.12-.1-.14,0-.01.07-.04.13-.06.2-.06-.04-.12-.1-.14,0-.03.14-.08.28-.13.41-.03.08-.06.15-.11.22-.09.06-.21.1-.35.09-.08-.01-.15-.02-.23-.03.03.08.05.15.08.23-.02,0-.03,0-.05,0-.08-.01-.15-.02-.23-.03.03.09.07.18.09.27,0,0,0,0,0,0-.04,0-.09,0-.13,0-.25-.02-.42.09-.51.26-.13.07-.22.19-.25.35,0,.04-.02.05-.04.08,0,0,0,0-.01,0-.11.04-.22.1-.29.19-.02.03-.04.05-.06.08-.05.03-.1.07-.14.12-.37.47-.69.96-.98,1.48-.16-.14-.31-.12-.46.04-.15.14-.31.29-.49.4-.23.14-.39.27-.55.45-.18.15-.33.34-.5.62-.23.07-.42.19-.54.37-.19.13-.32.31-.36.59,0,.01-.02.02-.03.03-.11.03-.24.05-.26.22,0,0,0,0,0,0-.09.03-.18.06-.2.2,0,0,0,.01-.01.02-.06.04-.12.08-.16.13-.04.04-.07.08-.11.12-.03.03-.07.05-.09.08-.13.13-.25.29-.38.43-.03.03-.06.07-.09.1-.04.04-.08.08-.13.11-.1.05-.28-.06-.36.12-.01.03-.03.06-.04.09-.06,0-.12.02-.16.11-.07.16-.15.32-.23.48-.05.05-.1.09-.14.14-.18.14-.29.34-.42.53-.06.04-.12.09-.2.11,0,.04-.01.07-.02.1-.06.04-.1.08-.18.1,0,.06-.01.11-.03.15-.09.05-.18.11-.23.22-.09.05-.17.11-.21.21-.05.12-.12.22-.2.32-.11.09-.24.18-.36.25-.14.08-.22.16-.3.27-.11.08-.19.16-.27.3-.28.5-.74.88-1.01,1.39-.14.05-.24.14-.31.26-.22.15-.3.43-.48.61-.02.02-.03.05-.04.08-.13.04-.22.12-.27.22-.19.09-.24.31-.33.47-.11.19-.24.36-.38.52-.14.13-.29.27-.46.37-.16.09-.27.19-.34.3-.27.2-.36.44-.29.78-.11.08-.23.14-.3.27-.12.08-.23.16-.25.36,0,.06-.03.14-.07.23-.05.02-.09.04-.16.04-.06,0-.11.09-.15.19-.02,0-.03.01-.05.01-.08,0-.16.15-.2.3-.03.1-.07.2-.13.29-.09.06-.19.1-.32.1-.2,0-.31.09-.39.25-.09.04-.16.1-.2.21-.05.1-.11.19-.17.28-.03-.02-.07-.05-.11-.06-.05.08-.02.21-.05.29-.02-.01-.09-.07-.15-.09-.03.05-.03.12-.03.19,0,0,0,0,0,0-.02,0-.05.1-.06.17-.03.02-.07.03-.14.03-.02,0-.07.16-.06.23.04.29.21.47.52.46,0,.19-.02.3-.03.38-.03,0-.05.02-.09.03-.1.03-.24,0-.2.16,0,.02.01.02.02.03,0,0-.01,0-.02,0-.1.03-.24,0-.2.16.07.25.16-.05.19,0,.02.03.03.08.03.12-.02.02-.02.06-.02.09-.15.05-.25.1-.22.29,0,.04-.02.08-.05.12-.05.05-.11.1-.16.16-.3.28-.65.7-.69.97-.03.21-.3.34-.25.4.28.33-.1.48-.17.7-.03.1-.08.2-.14.29-.11.07-.23.11-.4.09,0,0-.02.04-.06.09.03.03.06.06.09.09-.07.02-.15.03-.23.02-.01,0-.02.04-.06.09.2.21.45.4.62.66.04-.04.09-.08.2-.18-.06.54-.14,1-.43,1.41-.03-.15-.05-.27-.09-.43-.05.13-.12.27-.16.37-.01-.06-.02-.11-.04-.17-.09.24-.25.49-.19.57.23.33-.06.52-.13.78.12.07.25.14.37.21q-.18.19-.03.5c.03.08.06.21.02.25-.21.25-.07.54-.13.8-.04.15.24.25.02.43-.1.08.05.33-.1.48-.02.03.09.17.08.25-.01.11-.13.27-.09.32.2.23.12.39-.07.55-.09.07-.02.11-.01.19.06.3.34.6.06.93-.03.03.03.15.07.22.06.09.28.55.26.65-.05.21.04.39.08.57.04.21.21.37-.02.56,0,0,.02.02.03.04.22.34.44.69.65,1.04.04.07.11.2.09.21-.21.16,0,.33.06.32.25-.05.17.25.34.23.03-.02.05-.04.04,0,.05-.05.08-.02.08-.02-.02.03-.04.05-.06.08,0,0-.02-.02-.03-.03-.03.1-.05.19-.02.22.11.1.24.19.37.28-.32.33.3.06.18.28-.01.03.06.12.05.13-.19.15-.02.24.05.37.16.27.34.5.67.58.1.03.18.12.25.2.18.19.32.45.54.57.28.16.25.5.48.67.14-.04.27-.12.41-.12.16,0,.24.12.28.29.01.05.18.1.26.08.13-.04.22-.11.36,0,.11.09.34-.12.42.15.09.28.25-.16.37.03.09.15.19.11.32.01.07-.06.23-.07.3-.03.37.25.77.04,1.14.12.36.08.71-.21,1.08-.02.07.03.23-.15.36-.2.1-.05.24.11.33-.07.11-.22.34.18.52-.1.1-.15.4-.17.61-.24.08-.03.17.15.28-.01.04-.05.07-.09.11-.14.03,0,.06-.02.09-.06,0,0,.01-.01.02-.02.1-.07.22-.11.38-.07.05,0,.15-.07.2-.13.11-.12.31-.12.35-.3.03-.01.06-.03.09-.04.19.07.23-.06.27-.18.08,0,.13-.02.15-.08.04,0,.09.02.12.03,0-.14.07-.17.16-.21.01,0,.03,0,.04,0,0-.01,0-.02,0-.03,0,0,.01,0,.02,0,.06-.03.1-.1.14-.17.02,0,.04-.02.06-.03.04-.02.07-.07.1-.12.07.03.13.02.23-.03.29-.16.6-.25.86-.47.31-.28.68-.49.99-.76.16-.15.43-.03.55-.27.01-.02.03-.04.05-.07.06-.02.11-.06.15-.13.1-.18.28-.32.36-.51.1-.22.31-.33.43-.53.07-.11.14-.23.22-.34.03-.02.07-.05.1-.06.12-.04.18-.13.22-.22.18-.08.22-.25.31-.39.01-.01.02-.03.04-.03.15-.03.28-.1.46-.09.12,0,.14-.09.16-.19.01,0,.03,0,.04,0,.19,0,.15-.24.2-.4.02-.03.04-.05.06-.08.01,0,.02,0,.03,0,.07-.05.12-.13.18-.2.04-.02.09-.05.15-.05,0-.05,0-.09.01-.14.05-.04.11-.06.19-.06-.02-.17.04-.3.12-.41.07-.05.14-.1.2-.15.19-.15.37-.28.52-.45.19-.16.36-.34.42-.63.04-.17.2-.32.33-.47.02-.02.04-.04.06-.06.12-.13.29-.24.37-.4.08-.14.02-.36.26-.47-.08-.06-.17-.1-.21-.17-.1-.15-.11-.31-.06-.44.13.16.26-.07.39-.03.21.08.28-.05.34-.18.14-.02.18-.18.25-.3.05-.11.09-.18.12-.24.03-.02.06-.03.11-.05.13-.05.19-.13.23-.22.2-.09.22-.22.25-.42.01-.13.04-.26.09-.37.04-.02.07-.05.12-.06.04,0,.06-.07.08-.14.04-.02.07-.05.12-.06.05-.01.07-.12.1-.19.07-.15.09-.34.2-.44.22-.21.22-.49.32-.73.05-.13-.03-.33.14-.4.22-.09-.04-.27.1-.38.11-.08.15-.24.24-.35.09-.12.21-.22.31-.33-.24-.13-.02-.28.02-.35.03-.06.07-.12.12-.18.02-.02.04-.04.06-.05.04-.03.05-.06.07-.09.04-.04.08-.08.13-.11.24-.16.04-.42.18-.59.11-.13.17-.3.29-.4.16-.14.2-.3.18-.49.06-.02.1-.06.08-.15.1-.04.26-.04.2-.22-.01-.04.18-.13.02-.23.08-.09.15-.18.22-.28.02-.03.01-.08.02-.12.05-.28.07-.58.18-.84.12-.28.33-.52.5-.78.03-.04.08-.12.07-.13-.23-.2-.01-.29.08-.42.06-.08.06-.19.09-.29.04-.16.1-.31.13-.47.03-.16-.01-.32.1-.49.16-.25.34-.5.36-.84.02-.23.14-.47.35-.65.13-.11.21-.31.24-.48.04-.22-.02-.46.23-.63.18-.12.02-.41.16-.54.55-.51.44-1.29.77-1.89,0,0-.04-.03-.04-.04.03-.22.05-.44.08-.65.01-.04.02-.08.05-.11.25-.25.21-.57.21-.9.1-.04.16-.11.17-.19.15-.05.25-.17.19-.29-.08-.17.01-.24.02-.36.03-.5.47-.95.16-1.49-.02-.02.05-.09.09-.13.11-.09.11-.22.16-.33.08-.21.1-.4.13-.61.03-.18.15-.33.22-.5.06-.17.07-.38.17-.52.14-.18.04-.42.14-.53.17-.21-.11-.34-.02-.5.08-.14.21-.28.22-.43,0-.13-.1-.23,0-.42.1-.18.14-.38.3-.53-.33-.21.08-.4.02-.62-.08-.29.02-.57.23-.82.12-.15.18-.36.27-.54-.31-.19.19-.49-.09-.68.25-.06-.17-.22.05-.34.11-.06.12-.29.18-.44.04-.09.08-.18.13-.27.07-.13-.22-.18-.05-.31.15-.11.2-.26.18-.45-.04-.34.04-.66.26-.94.12-.16.13-.44.07-.53-.2-.29.25-.47.06-.71-.06-.07-.07-.12-.07-.17,0-.02,0-.03.01-.05.03-.04.08-.07.17-.09.08-.41.38-.78.24-1.24-.02-.05-.05-.1-.04-.14.16-.56.29-1.12.35-1.7.02-.18.07-.38.17-.52.21-.29.43-.57.66-.85.11.11.24.2.27.32.04.13.07.21.2.17.16-.05.38-.11.45-.24,0-.02,0-.04.02-.06.08-.04.15-.08.18-.14.1-.18.09-.42.13-.63-.09,0-.21.04-.23.01-.04-.07-.07-.14-.09-.22h.33c.07-.07.13-.13.2-.2.17-.17.32-.32.47-.47.08-.08.27-.1.3-.19.01-.04.04-.06.05-.09.07-.03.13-.06.15-.11.05-.13.13-.23.22-.33.06-.05.11-.11.17-.17.04-.04.08-.08.12-.11.05-.04.1-.05.15.03.13-.13.39-.14.46-.34.12-.05.22-.12.23-.29,0-.04.02-.06.03-.1,0,0,.01-.01.03-.01.13-.02.13-.11.14-.17.02,0,.03-.03.06-.03.02,0,.02,0,.04-.01.06.01.13.04.15.01.06-.06.12-.14.17-.2,0,0,.02,0,.03,0,.15-.14.28-.31.41-.48,0-.01.02-.02.02-.03.05-.01.11,0,.21.08.02.01.09-.01.09-.02,0-.08.04-.14.08-.2.01,0,.02,0,.03.02.02.01.09-.01.09-.02,0-.07.03-.13.07-.18.05-.04.1-.09.14-.15.1-.08.21-.16.25-.27,0-.03.03-.04.04-.06.11-.07.21-.13.27-.24,0,0,0,0,0-.01.08-.05.15-.1.2-.19.03-.05.04-.11.06-.17.2,0,.36-.03.43-.22.1-.03.18-.1.21-.24.08.02.15.02.23-.03.16-.09.32-.2.46-.32.32-.27.62-.6.98-.8.26-.14.47-.3.63-.5.22-.19.38-.42.48-.71.11.14.2.27.32.42.06-.08.12-.15.19-.21,0,0,0,0,.01.01.04-.05.08-.1.13-.14.06-.06.12-.12.18-.18.16-.15.31-.3.41-.5.02,0,.03-.01.05-.02.11-.04.22-.18.34-.02.05-.08.1-.16.15-.24.02.01.03.02.05.04.07-.1.12-.2.19-.3.07-.06.15-.12.25-.16.27-.14.5-.39.74-.59.28-.23.55-.46.83-.69.11-.09.26-.14.36-.24.19-.19.36-.35.67-.32.09.01.29,0,.32-.03.19-.2.41-.37.59-.57.15-.13.28-.28.39-.44.26-.03.57.13.76-.22,0,0,0,0,0,0,.08-.03.15-.09.21-.2-.08-.03-.16-.06-.23-.08.12-.11.23-.21.37-.26.14-.04.21-.14.27-.24.08-.04.14-.1.18-.17.17-.06.38-.04.55-.15.11-.08.19-.18.3-.24.17-.09.37-.1.47-.31.09-.04.16-.1.21-.22.14-.04.31-.03.41-.16.13-.15.32-.26.5-.37.15-.1.43-.14.45-.25,0-.03.02-.05.03-.08.06-.02.1-.05.13-.08.14-.01.31.05.33-.13.17,0,.24-.1.31-.24.07-.03.13-.08.17-.15,0,0,0,0,0,0,.33,0,.56-.11.71-.34.19-.12.32-.32.39-.63ZM48.1,42.45c-.05-.05-.08-.13-.09-.21.14.03.27.09.41.15-.02.05-.04.09-.06.14-.09,0-.2-.02-.26-.08ZM44.16,45.69c-.24-.18-.31.02-.44.13-.03-.1-.26-.07-.14-.26.04-.06.03-.15.04-.22-.06.03-.13.09-.18.07-.05-.01-.09-.05-.13-.1.14-.07.28-.14.4-.2.01-.01.01,0,.02-.02l-.04-.04s.05-.04.08-.06c0,.03,0,.04,0,.07.03-.02.05-.03.04-.03-.01.02-.02.03-.04.05,0,.22.11.3.3.3.17,0,.28.12.28.29,0,0,0,0,0,.01-.07.03-.14.04-.18,0ZM41.82,46.13s0-.03,0-.04c.02,0,.04.01.05.02,0,.02,0,.05,0,.07-.03-.02-.05-.03-.06-.05ZM37.6,47.89s-.02-.04-.03-.05c-.15-.11.05-.17.03-.23-.04-.13-.19-.21-.35-.19.05-.03.1-.1.17-.19.03-.01.07-.04.1-.07.02.06.04.12.07.21.07-.08.13-.16.19-.23,0,.01,0,.02.01.03.11-.13.2-.25.3-.37.09.14.17.26.22.4-.19.08-.32.17-.4.3-.15.09-.23.2-.3.4ZM37.12,49.13s-.02.02-.04.04c-.08-.08-.17-.17-.24-.24.01-.03.03-.05.04-.08.04.07.03.19.19.23.04,0,.05.02.05.03,0,0,0,.01,0,.02ZM32.39,58.42c-.03.07-.03.14-.03.21-.05,0-.11,0-.17-.01-.1.22.07.46.01.72-.09.38-.04.79-.28,1.14-.09.12.19.24,0,.42-.11.11-.1.35-.16.52-.05.16-.19.31-.17.45.04.28-.12.5-.22.72-.13.27-.09.56-.23.83-.13.24-.09.57-.16.85-.03.13-.14.24-.2.37-.07.16-.18.3-.07.53.07.13-.02.38-.12.52-.13.18-.06.31-.04.48.02.16-.09.4-.22.48-.2.13.09.29-.09.4-.11.07-.18.23-.23.36-.04.1-.01.23-.01.35,0,.05.04.1.03.14-.11.28-.21.57-.35.84-.08.18-.15.29-.07.52.04.11-.05.28-.14.43-.03.01-.04.04-.04.07-.02.04-.04.08-.06.12-.27-.02-.07.16-.11.23-.15.28-.05.63-.31.86-.01.02-.04.04-.04.05.06.41-.14.76-.25,1.14-.12.42-.34.78-.48,1.18-.22.61-.53,1.19-.6,1.86-.03.31-.16.66-.36.89-.19.21-.28.46-.38.7-.07.16-.11.34-.24.49-.07.08-.04.25-.06.37.01.01,0,.01.02.02-.02.03-.04.06-.05.1-.18.07-.23.21-.24.39,0,.1-.02.22-.08.29-.12.15-.27.28-.41.42.13.2-.05.34-.11.5-.06.18-.12.35-.18.52-.03.08,0,.19-.06.24-.28.28-.53.56-.47.99-.25.14-.22.44-.36.64-.13.17-.27.33-.37.51-.1.18-.11.38-.27.55-.1.1-.02.38-.12.46-.32.25-.38.66-.64.93-.1.1-.19.24-.21.37-.01.12-.02.23-.06.33-.03.01-.05.03-.08.04,0,.05-.03.08-.04.13-.04.03-.09.06-.16.07-.03.27-.17.47-.37.64-.05.04-.05.12-.02.21-.12,0-.26-.05-.28.17,0,.01-.01.02-.02.03-.09,0-.17,0-.18.17,0,.03-.03.06-.05.09-.16.13-.33.25-.5.37.01.02,0,.02.02.04-.07.05-.14.11-.22.16.21.25-.11.32-.17.48,0,0,0,0,0,0-.05.03-.1.07-.14.11-.02.02-.04.06-.05.09-.05.04-.11.07-.15.11-.05.05-.08.12-.12.19-.11.06-.24.1-.36.16.03.03.05.06.08.08-.09.04-.19.07-.28.12.04.04.08.09.1.11-.11.15-.22.31-.33.45-.04.03-.08.06-.11.09-.05.05-.1.11-.15.16-.02.01-.04.03-.05.04-.13.13-.26.27-.38.41-.01.01-.02.03-.02.04-.11.09-.21.18-.3.28-.2.19-.37.4-.56.61-.11.09-.22.17-.36.23-.02.06-.06.09-.1.13-.04.02-.06.05-.1.07-.01.03-.04.05-.06.08-.17.11-.38.18-.53.32-.16.15-.4.21-.53.41-.07.05-.14.11-.19.18-.06.03-.12.05-.17.08-.17.12-.37.22-.5.38-.24.3-.69.28-.9.61-.02,0-.03.02-.05.03-.04.02-.17,0-.23.02-.32.16-.76.07-.98.43-.02,0-.03.03-.04.04-.02.02-.04.04-.07.05-.13.04-.3.14-.38.09-.21-.12-.34.04-.41.11-.12.13-.22-.16-.35.04-.1.16-.3-.27-.54.01-.13.15-.38-.09-.56-.17-.12-.05-.25.02-.39-.06-.19-.11-.52-.06-.63-.2-.22-.28-.57-.42-.75-.72-.05-.08-.07-.19-.08-.29-.01-.13.01-.22-.18-.27-.14-.04-.23-.27-.34-.43.08-.09.17-.18.25-.27-.05-.22-.34-.15-.44-.4-.08-.21-.26-.33-.1-.59.08-.13.02-.35.01-.52-.02-.25.01-.72.06-.92.04-.16.07-.33.06-.49-.01-.09-.13-.17-.23-.28.01-.12.31-.23.14-.44-.15-.2.31-.37,0-.56-.01-.01.05-.15,0-.28-.05-.11.12-.32.19-.48.1-.23.2-.45.17-.72-.02-.18.05-.35.11-.54.15-.43.19-.88.28-1.33,0-.04-.02-.09,0-.13.06-.13.23-.34.19-.38-.15-.19.07-.27.06-.39-.01-.21.1-.31.22-.44.03-.04.05-.11.05-.17,0-.32-.02-.64.22-.9.03-.03-.05-.16-.02-.22.03-.08.17-.13.17-.19.01-.27.41-.36.29-.67.19-.14.27-.33.25-.55.07-.05.12-.11.16-.18.29-.16.29-.53.44-.79,0,0,0,0,0,0,.01,0,.01-.02.02-.03.05-.07.1-.13.18-.17.07-.03.07-.18.12-.27.09-.18.19-.36.3-.53.15-.21.29-.42.47-.59.07-.07.11-.18.16-.27.04-.02.08-.04.14-.04.04-.06.07-.11.1-.17.03,0,.05-.03.1-.03.1-.16.19-.31.28-.47.02,0,.05,0,.07-.01,0-.03,0-.06-.01-.08.01-.02.03-.05.04-.07.02-.04.11-.03.17-.05-.15-.52.46-.67.55-1.06.03-.03.06-.06.09-.09.35-.28.4-.71.55-1.1.03-.02.05-.03.05-.03.14-.09.26-.24.38-.33.24-.16.49-.31.68-.54.02-.02.1,0,.11-.03.01-.04.02-.08.03-.11.02-.02.04-.03.06-.06.02-.02.1-.01.11-.03.03-.1.05-.21.09-.3,0,0,0,0,.01,0,.16-.07.27-.27.42-.38,0,0,0,0,0,0,.06-.07.12-.14.2-.19.06-.05.09-.12.12-.19.03,0,.05-.02.09-.02.03,0,.06-.09.09-.14,0-.01.01-.03.02-.04.03,0,.05-.02.09-.02.03,0,.06-.09.09-.14.06-.1.11-.21.16-.3.06-.03.14-.03.24-.02.05-.07.11-.13.18-.2,0,0,.01,0,.02,0,.2-.25.5-.48.55-.75.01-.06.03-.11.05-.15.02-.01.03-.03.05-.05.02-.03.05-.05.07-.08.05-.04.09-.07.13-.12.16-.2.33-.39.51-.59.07-.04.14-.05.24.06.01.01.21-.09.21-.14,0-.03,0-.04.01-.07.05-.02.19-.09.19-.13,0-.19.06-.32.15-.43.05-.05.11-.09.16-.14.16-.15.33-.29.48-.45.19-.17.38-.36.47-.62,0,0,0,0,0,0,.1-.06.21-.12.28-.23.01-.02.04-.03.06-.05.02-.02.04-.04.06-.06.11-.09.25-.16.37-.24.19-.13.37-.28.58-.35.1-.03.1-.08.07-.13.04-.02.08-.05.13-.07.14-.04.08-.12.04-.19.02-.03.03-.07.04-.11.22,0,.16-.17.23-.27.05-.08.09-.15.14-.22.05-.03.1-.06.17-.08.19-.06.43-.13.53-.28.12-.18.33-.23.41-.39.08-.06.17-.12.21-.21.02-.04.06-.07.09-.11.13-.1.26-.2.36-.32.1-.08.18-.17.24-.28.01,0,.03,0,.04,0,.19-.03.36-.13.43-.28.14-.07.23-.19.23-.36,0-.03.01-.04.01-.06.06-.02.11-.03.15-.07.07.07.17.19.17-.03,0-.07.02-.11.04-.16.07.07.16.17.16-.04,0-.08.02-.13.04-.18,0,0,0,0,.02-.01.16-.07.39-.14.46-.28.01-.02.03-.04.04-.06.07-.04.13-.08.16-.14.14-.28.39-.45.56-.69.09-.13.18-.28.04-.48-.02-.03-.01-.07,0-.12.09.13.16.23.23.33.07-.07.13-.13.2-.2,0,0,0,0,0,0,.03-.03.05-.05.08-.08.17-.17.34-.32.58-.39.1-.03.15-.11.19-.2,0,0,0,0,0,0,.1-.03.14-.1.19-.18.03-.01.05-.03.09-.04.17-.01.34-.21.5-.35.06-.05.12-.1.16-.16.01-.01.03-.02.04-.04.11-.09.23-.18.23-.37,0-.02,0-.05.02-.09.14-.02.17-.1.16-.19,0,0,.01,0,.02,0,.21-.02.19-.14.18-.27-.01-.15.26-.24.05-.45-.1-.09-.13-.26-.16-.43.09,0,.16.03.18.24.01.21.25.27.53.33-.05-.13-.08-.2-.1-.29.09.03.19.06.3.09-.05-.14-.09-.22-.11-.31-.02-.07-.04-.19,0-.22.26-.21.31-.53.41-.82,0-.02.01-.03.02-.05.02,0,.04,0,.06.02.09.04.22.07.26.14.11.19.19-.07.29.01.26.22.09-.12.18-.15.01,0,.02-.03.03-.04.14.12.15.05.14-.03.07.12.06.3.26.08.01-.01.13.08.2.12.03-.03.04-.04.05-.06l-.05-.05s.05-.04.08-.06c-.02.05-.02.08-.02.11.04-.03.06-.05.06-.07-.02.03-.04.05-.06.08h0c-.05.24.08.33.21.46-.11.16-.22.32-.33.48-.07.09.14.24-.05.32.13.12.13.25.12.39-.03-.01-.07,0-.1.08-.03.08-.27.01-.22.21,0,0,0,0,0,0-.07,0-.15,0-.23-.02ZM24.67,61.06c-.14.03-.29.07-.43.1,0-.03.02-.05.03-.08.12.1.38-.29.41-.02ZM23.6,63.42s-.03-.07-.02-.08c.03-.02.07-.03.1-.04h0c-.03.08-.05.1-.08.12h0ZM23.68,63.3c0-.13,0-.23,0-.32,0-.07-.09-.17-.08-.18.06-.04.07-.07.06-.1.04-.01.08-.04.09-.12-.03-.02-.06-.05-.09-.07.03,0,.06,0,.09,0v.07s.05-.05.07-.07c.03,0,.06-.01.08-.03.04.05.11.1.1.14-.06.21-.1.43-.21.62-.04.02-.06.05-.11.07ZM26.56,58.38c.34.09.54-.1.73-.33.03-.02.06-.05.08-.07.03.2.27.27.31.45-.07.02-.14.04-.19.08-.29.22-.23-.1-.33-.2-.05.1-.1.2-.15.3-.01-.04-.03-.08-.05-.1-.05.1-.1.2-.15.3-.06-.05-.13-.11-.18-.1-.35.04.06-.27-.14-.29.01-.01.02-.03.03-.04.01,0,.02,0,.03,0ZM30.83,55.77c.01-.06.01-.11.01-.15-.05-.02-.07-.03-.09-.05h.07s.02.03.02.05h.12c-.05.06-.08.1-.12.13-.01.03-.03.06-.04.09-.01-.02-.03-.05-.04-.07h.07ZM32.42,52.66c.1.04.21.08.25.15.07.12,0,.27-.11.4,0,0,0,.01,0,.01-.14-.07-.27-.06-.41.11-.18-.35.11-.48.27-.67ZM31.85,53.95c.3.26.11-.17.28-.14,0,0,.01,0,.02.01-.01.08-.02.18-.04.27-.11.02-.25,0-.39,0v-.15c.07,0,.12-.01.13,0ZM31,55.59s.02-.02.03-.02h0s0,0,0,0c0,0,0,0,0,0,0,.01-.01.03-.02.04h-.01ZM31.03,55.52s0,0,0,0c0,0,.01,0,.02-.01,0,.01,0,.01-.02.02ZM30.92,55.35s0,0,0,0c0,0,0,0,.01,0,0,0,0,0,0,0ZM31,55.57s0,0,0,0c0,0,0,0,0,0h.02ZM29.92,56.98h-.2c.02-.07.04-.14.07-.2.08.06.12.13.13.2ZM28.94,57.58s0,0,0,0c-.02,0-.04.02-.06.03,0-.01,0-.02-.01-.04h-.04s.03-.02.05-.03c0,.01,0,.02,0,.03h.06ZM29.1,57.38s0,.02-.01.03c0,0,0-.02,0-.03h-.05s.03-.02.05-.04c0,.02,0,.03,0,.04h.02ZM28.85,57.38h0c-.09,0-.13-.03-.13-.07.07,0,.11.03.14.07ZM34.25,51.64s.03-.02.05-.03c0,.05,0,.08.01.12-.02-.03-.04-.06-.06-.09ZM34.01,51.91s0,0,.01,0c.01,0,.03.03.04.04,0,0-.03.01-.04.02,0-.02,0-.03-.01-.05ZM34.13,55.83c.25-.29.56-.04.84-.06.02,0,.05.03.08.08-.05,0-.1,0-.15.08-.04.05-.33.1-.47-.07,0-.02-.04-.04-.04-.04-.1.1-.22.24-.31.03.02,0,.03-.01.05-.02ZM35.32,51.27h-.23c.03.17.04.32.09.46.02.05.05.1.07.15-.1-.01-.27.26-.3-.09,0-.05-.22.13-.31-.06-.03-.05-.06-.11-.1-.17.06-.03.1-.07.11-.14,0-.01,0-.03,0-.04.1,0,.18-.05.2-.16.02-.16-.03-.33.04-.49.23-.15.47-.13.67.12.05.07.1.14.14.22h-.41c.01.07.02.14.03.2ZM36.29,49.23s.01-.02.02-.03c0,0,0,.02,0,.03-.01,0-.01,0-.03,0ZM35.02,31.89s.04-.03.05-.02c.02,0,.03.02.05.03h0s0,0,0,0c.04.03.09.06.13.1-.04,0-.08-.03-.14-.08-.03,0-.06-.02-.09-.03ZM35.7,30.33s-.05.03-.08.05c-.02-.02-.03-.03-.05-.05.03-.01.06-.03.09-.04.01,0,.03.03.04.04ZM35.31,30.79c.08-.17.14-.27.17-.36.05.08.1.15.15.22-.09.04-.19.08-.32.13ZM35.79,27.14c.21.12-.16.24-.01.41.01.01.01.05.02.07-.19-.13-.25-.26-.25-.48h.24ZM33.54,31.97v.07h.13s-.03-.03-.05-.05c.03.01.05.02.08.04-.01,0-.02,0-.03.01-.03.04-.06.07-.09.11-.01-.04-.03-.07-.04-.11-.03-.02-.05-.04-.08-.06.02,0,.05-.01.08,0ZM34.46,32.3s.04,0,.06,0c-.04.26-.04.43-.03.57-.13-.05-.22-.14-.29-.26.02-.01.04-.03.06-.04v-.06s-.06.02-.09.04c-.02-.04-.03-.08-.05-.12.04,0,.07.03.14.08.04,0,.09,0,.13-.01.02-.03.03-.04.04-.06,0-.01,0-.03-.01-.04.01-.01.03-.02.04-.03v-.06s-.04.02-.06.03c0,0,0-.01,0-.02,0,0,.01-.01.04-.03.01,0,.02.01.03.02ZM33.6,36.07c0,.06,0,.11,0,.16-.01,0-.02-.02-.03-.03,0-.06-.03-.1-.06-.13h.08ZM34.68,32.03s.03-.03.06-.05c0,.03,0,.04-.01.07-.02,0-.03-.01-.05-.02ZM35.29,33.9s.09-.1.15-.15c.04.09.09.16.15.24-.04.09-.07.17-.12.25-.06-.13-.12-.23-.17-.34ZM35.73,32.64s-.02.03-.04.05c-.05,0-.09,0-.12.06-.1.04-.24.09-.39.16.06-.1.1-.16.14-.22.22.19.11-.16.17-.21,0,0,0-.01,0-.01.25.24.13-.14.19-.19.05-.04.07-.1.09-.18.1.04.21.09.31.13-.05.1-.1.19-.14.27-.08-.02-.19-.06-.21.14ZM38.33,47.66c0,.09.02.18.09.27.02.04.01.1-.01.17-.08-.15-.13-.29-.08-.44ZM36.66,47.32s-.14-.06-.21-.09c-.2-.08-.29-.13-.36-.18.03,0,.06-.02.09-.08.23.13.66.29.84.29-.04.05-.08.1-.11.14.15.04.23.06.3.03-.03,0-.06.01-.09.03-.22.1-.39.22-.46-.14ZM37.11,32.04c.13.09.26.18.42.3-.02.05-.05.12-.07.18-.32-.17-.43-.29-.34-.48ZM37.21,43.4s0,.03,0,.07c0-.03,0-.05,0-.07.03-.02.07-.04.15-.01.23-.25.34-.07.44.12-.2.06-.39.12-.58.22v-.26s-.02-.03-.04-.04c0,0,.02-.02.03-.03ZM38.76,29.28c-.03.07-.07.13-.1.2-.02-.15-.09-.27-.18-.37.09.05.17.11.28.18ZM37.57,46.38c-.05-.05-.09-.1-.1-.15.09-.06.18-.11.29-.18.16.21.18.26,0,.46-.06-.04-.13-.08-.19-.13ZM38.83,28.48c-.09.06-.16.12-.21.21-.11.08-.2.16-.23.3-.06-.07-.09-.15-.1-.24.02-.02.03-.05.04-.08.11-.06.21-.1.22-.31,0,0,0,0,0-.01.08.01.17.05.28.14ZM37.13,26.64c.04.08-.24.16-.01.2.21.04.17.15.16.25-.13.07-.26.13-.41.21-.29-.27-.21-.54-.09-.83.12.06.24.12.35.17ZM36.13,44.08s-.05.02-.07.03v-.07s.05.02.07.04ZM39.8,14.12h0s0,0,0,0c0,0,0,0,0,0ZM39.65,27.68s0,0,0,0c0,0,0,0,0,.01,0,0,0,0,0,0,0,0,0,0,0-.01ZM40.16,14.44c-.04-.11-.07-.21-.1-.32h.06c.03.1.06.21.1.31-.02,0-.04,0-.06,0ZM40.12,12.93c.07-.05.1-.15.14-.24.03,0,.06-.03.1-.02.02.01.05.03.05.04,0,.11.02.22.02.33-.09.05-.19.07-.31-.11ZM41.81,12.82s.18.15.3-.1c.01.19.03.31.03.43v.16c-.09.02-.19.09-.3.06-.01-.06-.02-.14-.02-.23,0-.11.02-.21-.07-.27.02-.01.04-.03.06-.05ZM41.57,12.68s.05.08.05.15c0,0,0,0,0,0-.1-.02-.17-.1-.19-.2.05.02.09.04.14.05ZM31.78,36.41s-.17.1-.21-.01c.19-.04.35-.2.52-.31.15.24.31.5.49.82-.02.02-.04.04-.05.06-.29-.22-.51-.41-.75-.56ZM29.35,44.74c-.12-.15-.35-.34-.38-.55-.04-.33-.2-.48-.54-.57-.03.08-.06.16-.1.24-.03-.01-.06-.03-.1-.04-.13.35-.36.74-.38,1.13,0,.05-.02.09-.03.12-.03.02-.05.04-.07.08-.01.03-.04.05-.06.07-.05.04-.11.07-.14.13-.03.06-.08.1-.12.15,0,0-.01.01-.02.02,0,0,0,0,0,0-.06.07-.13.13-.19.18.05-.09,0-.2-.12-.46.09-.08.17-.16.26-.25,0,0,0-.02.01-.02.06-.06.12-.11.19-.18.09-.09.16-.2.2-.31.03-.07-.21-.12-.04-.24.01-.01.02-.08,0-.09-.26-.23-.31-.28-.33-.49.08,0,.16,0,.24,0,.21.02.27-.19.41-.26.17.24.21-.03.33-.09-.06-.02-.12-.04-.19-.07.02-.02.04-.03.06-.04.16.22.2.02.3-.07-.16.2.1.33.14.49.04.17.36.16.39.41.04-.04.09-.08.14-.13.05.18.05.46.15.5.14.05.21.13.27.23-.08.03-.17.05-.28.09ZM26.33,49.93s-.07.04-.12.05c-.04.01-.08.13-.09.2,0,.03,0,.07,0,.11-.04-.03-.07-.06-.1-.1-.07-.08-.12-.16-.13-.24.01,0,.01,0,.03-.01.05-.02.09-.08.12-.16.03-.01.04-.03.08-.04.04-.01.08-.06.11-.13.06.06.12.11.14.17.01.03,0,.04,0,.06-.01.03-.02.06-.03.09ZM26.13,48.77s0,0,0,.01c-.01.09-.05.12-.09.14,0,0-.02-.01-.02-.02,0,0-.03.01-.06.03-.07,0-.15-.03-.22-.01.05-.1.09-.19.14-.29.1.04.18.07.24.11,0,0,.01.02.02.03ZM22.9,41.59s0,0,0,0c-.12-.02-.25-.06-.37-.1-.06-.02-.11-.05-.18-.08.06-.13.12-.23.17-.34-.14-.1-.28-.21-.42-.31.08-.1.09-.19.07-.29.03,0,.07.02.12.09.17-.2.07-.38-.01-.58.06,0,.12.04.17.16.14.29.41.49.12.83-.03.03.03.16.09.21.1.09.23.16.39.26-.02.03-.03.07-.05.1-.06,0-.09.02-.11.05ZM24.18,35.57c.11.17.25.31.47.38-.2.07-.36-.11-.51-.16.01-.08.03-.15.04-.23ZM24.61,35.12c.04-.07.08-.16.13-.27,0,0,.01.01.02.02.04.13.04.23,0,.3-.08.04-.17.08-.25.12-.06-.11-.06-.2-.03-.28.03.02.08.07.12.1ZM25.97,42.64c-.08-.11-.2.04-.29-.01-.09-.05-.18-.09-.27-.14.11-.12.15-.25.11-.37.17,0,.21.07.35.3.06.09.11.15.1.22ZM24.82,41.52s-.01,0-.02,0h0s0-.01,0-.01c.03-.02.05-.04.08-.06-.02.03-.03.05-.05.07ZM24.28,38.75s.01,0,.02,0c-.07.01-.12.07-.21.13.01-.05.03-.08.04-.12.04,0,.09-.01.15-.01ZM24.49,43.24c0-.08,0-.15,0-.21h.31s-.04.07-.05.11c-.07-.05-.15,0-.25.1ZM24.43,35.45s-.08.03-.11.05c-.05-.1-.06-.19-.03-.27.04.08.09.15.14.21ZM24.74,37.63s-.06.1-.09.16c-.07-.09-.04-.24-.25-.26-.02,0-.04-.02-.06-.03.04-.1.06-.17.07-.18.09.09.21.19.33.31ZM23.96,41.98h.12s-.08.09-.12.13v-.13ZM27.38,18.55c-.14.16-.33.06-.51.02.16-.11.32-.2.5-.28.07.12.05.19.01.25ZM26.77,30.19s.04-.03.05-.04c.08.08.3.09.11.29-.06.07-.1.15-.14.24-.14-.05-.26-.12-.36-.2.13-.07.24-.17.34-.29ZM23.35,36.59s.07,0,.09,0c.18.04.35.1.5.15.11.22.22.46.34.72-.12-.1-.23-.27-.36-.28-.23-.01-.32-.32-.45-.24-.2.12-.36.05-.55.07,0-.04.04-.07.06-.1.1-.06.19-.13.25-.23.05-.03.09-.06.13-.09ZM23.37,40.52c-.03-.05-.07-.11-.06-.14,0-.02.03-.04.05-.07,0,.09,0,.15,0,.2ZM22.06,40.74s-.05-.04-.08-.06c.02,0,.05.03.08.06ZM20.87,43.52c-.19.24-.31.35-.39.48-.03.05-.05.09-.07.14-.06-.11-.12-.21-.11-.21.08-.07.14-.15.2-.24.09-.07.2-.14.37-.17ZM20.28,44.19s-.06.03-.09.04c-.01,0-.03-.03-.04-.04.03-.01.06-.03.09-.04.01,0,.03.03.04.04ZM21.23,46.65s.05.09.08.12c-.04-.02-.08-.03-.12-.05.01-.02.03-.05.04-.07ZM21.25,45.04s0-.01,0-.02c.01,0,.02-.02.03-.03,0,0,.02,0,.03,0-.03.02-.05.03-.06.04ZM24.16,44.97s-.02,0-.03-.01c0-.01.01-.03.02-.04,0,0,.03.03.04.04,0,0-.02,0-.03.01ZM25.86,44.89c-.08.03-.31.13-.33-.16-.01-.13-.21-.13-.23-.03-.01.07-.04.1-.06.14-.06-.02-.13,0-.14.06,0,0,0,0,0,.02-.06,0-.13-.04-.2-.08-.18-.09-.33-.22-.53-.07-.02.01-.12-.05-.13-.09,0-.01,0-.03,0-.04.11-.06.23-.12.34-.15.13-.02.25-.26.41-.05.1-.05.18-.13.23-.22.17-.11.29-.31.25-.45-.03-.13.02-.16.05-.24,0-.02,0-.05.01-.08.15.04.28.08.42.12.04.14.08.32.13.5.07.23,0,.55-.16.77-.02.01-.04.04-.06.05ZM28.48,42.93c.06.08.11.16.1.17-.01,0,0,.02-.02.03-.06-.02-.13-.05-.21-.07.01-.02.02-.05.03-.08.04-.01.07-.03.09-.04ZM30.17,42.75c-.04-.08-.04-.15-.02-.21.03.07.03.14.02.21ZM30.06,42.26s0,0-.01.01c-.01-.03-.03-.07-.02-.08.01,0,.03-.01.05-.02,0,.03-.01.05-.01.09ZM30.25,41.95c0,.05-.07.1-.13.15,0-.11-.02-.2.13-.21-.05-.06-.03-.1,0-.15,0,.07,0,.14,0,.21ZM27.21,45.72c.02.07.08.17.07.23-.08.03-.17.02-.27-.03,0-.01.02-.03.03-.04.09-.06.14-.11.17-.16ZM27.2,47.08h0s0,0,0,.01h0ZM27.2,47.97s.01,0,.01.01c0,0,0,.02-.01.02v-.03ZM27.92,45.91s.09,0,.15.03c-.04,0-.09,0-.15-.03ZM16.95,55c-.05.02-.13-.03-.21-.08.09-.03.18-.06.26-.09.02.02.05.06.07.08-.04.03-.08.07-.12.09ZM20.9,47.08c-.18-.05-.21-.24-.19-.43,0-.03-.05-.07-.09-.09-.18-.11-.15-.29-.17-.46-.03-.18.02-.33.1-.48.04.03.09.06.13.07.22.06.22.05.23.23,0,0,0,0,0,0-.02.01-.04.02-.06.04.02.02.03.06.05.08-.1.03-.18.07-.25.12.23.25.26.62.51.84-.1.05-.19.1-.26.08ZM23.64,45.2s.01-.02.02-.03c.01.03.02.05.03.08l-.05-.05ZM35.85,45.48s.03.02.04.02c-.12.08-.19.01-.25-.05.07.03.14.05.22.03ZM36.6,48.42s0,.01-.01.01c-.01,0-.03,0-.04,0,.03-.02.05-.02.05-.01ZM44.8,45.25c-.04-.17-.09-.34-.13-.5.15.05.3.1.44.14.05.02.12-.07.18-.06.03,0,.06.02.09.03-.03.06-.05.11-.08.18-.03-.02-.05-.03-.08-.05-.04.09-.09.19-.14.3-.04-.05-.08-.11-.13-.16-.05.04-.09.08-.14.12Z"/>
  <path class="st0" d="M28.66,47.47s0,0,0-.01l-.06.06s0,0,.01,0c.02,0,.03-.02.05-.03,0-.01,0-.02,0-.03Z"/>
  <path class="st0" d="M28.86,25.39c.05-.09.09-.14.09-.16-.04-.05-.09-.1-.13-.15.01.08.02.17.04.31Z"/>
  <path class="st0" d="M25.93,47.64s.03.03.04.04c0-.02-.01-.04-.02-.06,0,0-.02.01-.02.02Z"/>
  <polygon class="st0" points="33.01 56.48 33 56.48 33.01 56.48 33.01 56.48"/>
  <path class="st0" d="M43.77,45.08s0-.01,0-.02c-.01,0-.02.02-.04.04l.02.02s.02-.02.02-.03Z"/>
  <path class="st0" d="M5.36,94.52s0,0,0,0l.03.03s0-.02,0-.03c-.02,0-.02,0-.04,0Z"/>
  <path class="st0" d="M36.66,33.08l.02.02s0-.02.01-.03c-.01,0-.02,0-.03,0Z"/>
  <path class="st0" d="M34.43,32.43s.01.04.02.06c.02-.07.04-.12-.02-.06Z"/>
  <path class="st0" d="M28.75,25.43s-.09-.1-.13-.15c.01.08.02.17.04.31.05-.09.09-.14.09-.16Z"/>
  <path class="st0" d="M38.06,47.03s-.05-.05-.06-.08c-.02.02-.04.04-.06.06.03.02.05.04.08.06,0,0,.02-.02.04-.04Z"/>
</svg>