<?xml version="1.0" encoding="UTF-8"?>
<svg id="Layer_1" xmlns="http://www.w3.org/2000/svg" version="1.1" viewBox="0 0 113.37 113.37">
  <!-- Generator: Adobe Illustrator 30.3.0, SVG Export Plug-In . SVG Version: 2.1.3 Build 182)  -->
  <defs>
    <style>
      .st0 {
        fill: #f15a29;
      }

      .st1 {
        fill: #fff;
      }
    </style>
  </defs>
  <rect class="st0" x="-.33" y=".17" width="114.39" height="113.71"/>
  <g>
    <path class="st1" d="M36.9,61.89c-.21-.5.22-.87.29-1.3.01-.04.18-.06.25-.12.22-.18.43-.37.66-.55-.29-.19.01-.39.03-.58.01-.2.39-.29.38-.58-.01-.17.42-.35.43-.53.03-.38.35-.63.53-.94.04-.06-.07-.18-.03-.23.06-.06.22-.05.29-.1.08-.07.18-.19.18-.28.01-.27.14-.18.28-.06.07-.04.17-.08.18-.14.08-.22.29-.5.2-.64-.25-.33.1-.55.07-.81-.04-.35.34-.46.55-.66.07-.07.21-.16.2-.21-.11-.37.29-.6.41-.91.1-.3.32-.59.43-.89.04-.13.04-.27.1-.41.06-.17-.06-.36.18-.49-.31-.35.39-.53.24-.85.62-.03.08-.55.5-.66-.1-.03-.21-.06-.39-.12.2-.15.43-.26.53-.42s0-.36.04-.53c.03-.12.14-.23.24-.34.11-.13.39-.2.15-.39.43-.19.27-.51.36-.79.21-.61.03-1.27.53-1.82-.06-.4.32-.53.72-.66-.06-.19-.24-.46-.14-.53.25-.2-.11-.31-.03-.45.13-.22-.27-.48-.01-.64.29-.19.07-.46.25-.62.28-.24.06-.4-.07-.62.17-.09.41-.17.52-.29.1-.13.11-.33.04-.46-.11-.25.29-.47.03-.72-.03-.02.11-.14.17-.21.07-.09.18-.19.18-.28-.01-.2.08-.34.27-.48.15-.12.28-.3.29-.45,0-.53.36-1,.5-1.5.03-.1.08-.22.06-.33-.03-.13-.18-.25-.15-.36.03-.12.32-.27.29-.3-.34-.35.21-.53.22-.8.04-.55.48-1.04.38-1.6-.01-.05.04-.13.08-.18.35-.48.43-.83.48-1.46.01-.23.15-.46.21-.69.04-.16-.1-.41.25-.49.04-.01.08-.16.06-.17-.32-.18.14-.35,0-.51.49-.3.42-.73.35-1.12-.04-.2.28-.35.08-.52-.24-.22.31-.33.13-.55-.13-.16.29-.31.03-.49.03-.02.06-.03.06-.05.07-.3.56-.44.48-.83-.06-.28.03-.62.18-.9s.14-.56.17-.84c0-.07.07-.18.15-.22.18-.12.25-.25.21-.42-.07-.27.11-.5.32-.65.24-.17-.03-.45.32-.56.01,0-.01-.09-.01-.14-.08-.39-.22-.77.22-1.13.17-.14.22-.45.15-.64-.1-.26-.07-.46.1-.68.1-.13.13-.28.2-.42s.13-.28.18-.43c.04-.14.17-.31.1-.39-.17-.19.21-.23.11-.41-.06-.08.07-.24.14-.36.39-.62.83-.67,1.46-.18.08.06.15.14.21.21.34.42.7.84,1.01,1.27.29.41.6.83.76,1.28.13.36.48.59.67.89.14.21.49.39.15.68-.1.07-.03.26-.01.4.03.23-.1.41-.25.61-.24.31-.29.7-.41,1.07-.01.02.1.09.1.09-.46.35-.31.79-.36,1.2-.04.27-.18.53-.28.81-.06.15-.15.28-.18.42-.03.13.03.25.03.38,0,.15,0,.28-.03.43-.01.16-.04.3-.08.45-.06.17-.11.35-.24.47-.14.14-.14.21-.01.35.04.04-.18.22-.29.35.1.36.55.61.55,1-.66.27-.8.53-.76,1.05.03.25.11.52-.11.79-.1.12-.04.3-.06.46-.01.14.06.33-.04.4-.35.28-.27.57-.14.88.03.06.04.17,0,.2-.15.13-.27.22-.06.4.07.06-.11.26-.11.4-.01.45-.11.87-.49,1.23-.03.02.03.1.06.15.18.22-.13.5.2.7.01.01-.01.08-.04.09-.48.12.13.5-.28.63-.06.65-.14,1.29-.18,1.94-.01.17.25.35-.1.48-.06.02-.1.16-.08.17.43.27.04.55-.03.79-.07.23-.28.43.03.65-.04.46.15.95-.24,1.37-.14.15.18.33-.13.4.27.13.18.33.18.49,0,.58.04,1.15-.01,1.72-.03.29-.22.59-.73.67.27.09.5.19.74.28-.06.05-.15.15-.15.15.31.24.34.5.17.81-.11.21.15.4.03.65-.07.16-.32.41-.07.63-.32.23.15.29.15.46.27-.01.56.05.73-.17.1-.13.17-.27.28-.46-.14-.06-.29-.14-.45-.21.11-.09.15-.16.22-.19.55-.2,1.05-.42,1.12-.94,0-.04.13-.1.18-.09.39.01.74-.35,1.15-.03.08.06.18-.19.32-.03.01.02.11.03.13.02.08-.14.15-.27.25-.45-.35-.12-.8-.15-1.02-.03-.32.16-.34-.04-.48-.1.08-.12.15-.23.28-.33.03-.02.11.19.31-.04.38-.45.45-.42.52-.86.01-.08.07-.17.13-.24.27-.31.28-.38.24-.78-.03-.25.17-.44.35-.65.24-.26.53-.49.63-.84.06-.2.11-.39.11-.58,0-.21.1-.34.32-.44.36-.19.59-.48.6-.78.01-.27.04-.51.46-.61.06-.01.06-.16.1-.24.1-.24.1-.59.32-.71.38-.21.06-.55.36-.72.06-.57.66-.89,1.02-1.32.39,0,.31-.21.29-.38-.04-.48.14-1.08.49-1.46.08-.09.22-.18.24-.27.04-.3-.13-.65.35-.86.03-.31.2-.59.52-.81.04-.02.07-.08.06-.12-.17-.38.22-.63.42-.9.18-.26.38-.49.32-.8,0-.02-.01-.05,0-.07.11-.21.39-.46.32-.63-.1-.26.07-.37.2-.53.24-.31.25-.7.57-1,.1-.09-.07-.28-.34-.39.17.02.06-.36.38-.12.01.01.46-.46.43-.49-.32-.33.04-.62.21-.83.15-.19.22-.4.34-.59.17-.29.27-.6.42-.9.14-.29.32-.63.35-.91.04-.55.42-1,.52-1.49.1-.5.31-.96.49-1.44.17-.45.39-.89.63-1.32.04-.06-.04-.16-.03-.24.03-.59.53-1.11.46-1.72,0-.06.01-.16.06-.18.39-.18.29-.47.31-.73.01-.22-.07-.44.18-.64.2-.16-.25-.3-.03-.51.17-.16.14-.41.22-.62.07-.18.17-.36.27-.55.06.04.13.07.18.12.03-.03.08-.06.1-.09.01-.09.01-.19,0-.27-.03-.18-.06-.86.07-.96.15-.13.17-.28.1-.38-.13-.17.38-.23.07-.4-.07-.04.22-.2-.03-.28-.01-.01-.03-.05-.03-.06.32-.34.07-.74.24-1.1.17-.35.2-.71.31-1.08.07-.23-.1-.49.18-.7.03-.02-.08-.12-.07-.18.04-.16-.08-.31.07-.49.25-.33.6-.65.24-1.08-.06-.06.11-.22.13-.34.01-.08-.14-.23-.11-.26.18-.14.08-.3.11-.45.03-.13.2-.22.01-.38-.07-.06.1-.27.17-.41.08-.21.39-.43,0-.65.13-.22.15-.46.21-.69.04-.19.07-.36-.01-.53-.03-.08-.03-.18-.01-.27.01-.07.1-.14.11-.2.01-.04-.06-.09-.04-.15.01-.08.08-.16.1-.24.03-.08-.03-.2.03-.26.07-.08.24-.2.34-.19.27.03.7-.19.77.22.7-.07.7.59,1.26.69.21.04.38.27.2.51-.04.04.03.19.1.22.28.14.34.39.22.53-.2.25,0,.46.08.63.08.16.14.3.1.44s.35.18.08.33c-.01.01-.01.07,0,.09.45.48.27,1.1.65,1.59-.39.31-.01.55.15.81.04.07.04.17.06.26.03.31.18.66.07.94-.13.29.15.65-.22.89.2.15.21.27,0,.44-.08.06-.07.23-.25.18-.1-.03-.14-.17-.22-.27-.38.31-.76.63-1.14.94.04.03.13.09.28.21.35-.18.7-.37,1.08-.57.04.16.08.34.14.51.01.03.07.09.07.09-.55.27-.01.63-.13.94-.08.25-.08.49-.45.62-.03.01-.04.08-.03.13.08.2.2.4.25.61.04.18.13.42.01.53-.31.29-.01.63-.22.9-.22.28-.07.58-.13.86-.03.15.04.3-.11.45-.08.07-.06.26.01.36.13.16.15.28.01.43-.15.15-.14.27,0,.43.06.05.08.17.04.23-.07.09-.25.16-.29.25-.03.07.17.26.14.27-.22.12-.07.35-.2.42-.28.17.22.3-.01.44-.21.13-.13.29-.13.44s-.01.27-.18.36c.32.07-.06.24.08.35.2.14.07.23-.07.34.17.1-.01.23.01.29.18.5-.1,1-.03,1.5.03.16.13.31.11.47-.01.19-.13.38-.18.56-.06.17-.03.38-.15.5-.15.16-.2.24,0,.4.08.06.08.23.03.33-.34.55-.11,1.11-.17,1.67-.03.24-.01.47-.17.71-.11.17-.29.44,0,.62.25.15-.01.21-.03.31-.06.58-.13,1.15-.18,1.73-.01.09.04.25-.01.26-.65.25-.15.78-.5,1.09.32.23-.25.55.13.79.04.03,0,.17-.06.25-.1.16-.17.5-.14.78,0,.02.03.05.01.06-.32.28-.11.65-.24.96-.21.51-.55,1.03-.18,1.58.01.03-.06.1-.11.15-.13.09-.24.15-.06.3.1.09.14.36-.1.49l-.24.64c-.11.26.36.59-.18.8.04.36-.14.7-.15,1.05-.03.36-.07.72-.27,1.03-.13.2.34.43-.13.53.01.2-.1.41.17.57.04.03.01.14,0,.2-.06.21-.13.42-.18.63-.04.2-.01.41-.1.59-.08.17.34.37-.07.48-.34.09-.1.34-.25.47-.34.29.24.07.2.2-.36.8-.73,1.58-.69,2.44.01.21.01.4-.25.55-.24.13.18.19.07.33-.07.09-.21.23-.17.28.15.17-.34.23-.08.4.21.14-.08.23-.1.34-.01.17-.06.3-.2.43-.03.02.08.12.07.17-.04.16.1.33-.07.49-.14.15-.17.37-.2.56s-.15.27-.42.33c-.01,0,.01,0,.04,0-.01-.03-.03-.07-.06-.1-.01-.01-.07.01-.11.02.03.03.06.05.13.08.06.13.03.28.11.39.17.2.17.39.01.56-.1.12-.01.14.06.2.1.1.17.07.27,0,.06-.04.17-.02.25-.04q.32-.06.06-.36c.83-.34,1.68-.65,2.47-1.04.25-.13.36-.4.72-.5.43-.14.95-.28,1.22-.55.28-.27.73-.33.98-.62.24-.26.72-.42,1.11-.6.14-.07.35-.14.5-.12.32.05.35-.18.52-.25.18-.07.34-.16.5-.24.22-.1.43-.2.73-.33.1.28.14.58.6.58.01-.02.04-.04.04-.05-.08-.23-.36-.47-.14-.68.25-.23.6-.44.95-.59.48-.2.94-.41,1.39-.77.07-.05.21-.06.29-.1.24-.13.48-.25.7-.39.17-.09.31-.21.49-.27.11-.04.25-.25.41-.03.32-.18.65-.37.97-.55.24-.13.46-.26.7-.39.03-.01.06-.01.08-.01.36.03.13-.46.55-.36.29.07.45-.07.65-.18.24-.13.56-.22.69-.4.2-.28.69-.29.87-.59.04-.06.31-.13.34-.1.15.14.22.03.34-.03.11-.06.25-.09.38-.15.1-.03.22-.05.31-.1.21-.14.39-.29.59-.43.31.22.49-.04.7-.12.24-.08.43-.21.66-.3.24-.12.52-.2.73-.33.18-.1.46.13.62-.15.07-.15.34-.24.53-.35.21-.1.43-.21.67-.29.42-.14.81-.31,1.21-.48.14-.06.31.12.48-.05.11-.12.41-.28.48-.24.38.17.41-.03.5-.21.08-.19.31-.07.46-.1.31-.05.13-.45.59-.42.24.02.49-.09.73-.16.21-.05.56-.12.57-.2.06-.29.41-.09.46-.19.17-.21.45-.08.66-.18.14-.06.34-.06.52-.05.11.01.21.09.25.12-.17.57-.57.82-1.26.81-.08,0-.2.07-.22.14-.1.16-.2.27-.45.27-.06.3-.6-.04-.7.3-.03.12-.42.16-.63.26-.25.12-.52.23-.7.39-.22.21-.72.05-.83.34-.11.29-.43.28-.7.39-.15.06-.27.17-.42.25-.25.13-.57.09-.83.17-.2.05-.22.35-.57.42-.31.07-.53.3-.83.47.11.03.22.06.35.09-.29.41-.8.15-1.19.25-.25.44-.81.7-1.25,1.04-.04.03-.32.04-.45.03-.43-.03-.67.14-.94.34-.14.1-.35.16-.5.25-.39.24-.77.48-1.16.72-.34.21-.66.47-1.04.62-.22.08-.39.19-.56.31-.14.1-.22.25-.34.38-.17-.17-.32-.02-.48.02-.11.03-.25.07-.28.15-.21.42-.76.62-1.08.95-.17-.16-.31-.3-.46-.45-.11.06-.2.08-.21.12-.2.56-.66.9-1.33,1.17-.5.21-.93.56-1.37.84-.2.13-.42.24-.65.34-.2.09-.34.06-.65-.08-.1-.04-.2-.09-.31-.1-.08-.01-.18.08-.25.06-.32-.06-.65-.16-1.01-.24-.01,0,.01,0,.04,0-.01-.03-.03-.07-.06-.1-.01-.01-.07.01-.11.02.03.03.06.05.13.08.13.27.21.55.29.83.07-.04.13-.08.2-.13.1.08.18.18.28.26-.04.1-.07.21-.14.3-.15.23-.57.24-.72.52-.13.24-.6.31-.65.63,0,.01-.1.03-.13.02-.35-.25-.43.01-.6.16-.18.18-.36.36-.57.5-.04.03-.25-.05-.31-.02-.08.05,0,.21-.24.23-.21.02-.35.14-.36.33-.01.31-.48.29-.69.45-.08-.1-.17-.09-.27,0-.29.28-.74.45-.93.82-.04.09-.31.12-.42.2-.31.22-.6.45-.94.7h-.84c.08.17.13.31.22.44.03.03.2-.01.32-.01-.06.22-.04.47-.18.66-.1.14-.41.2-.63.25-.18.04-.22-.04-.28-.18-.06-.14-.27-.24-.42-.37-.39.38-.8.74-1.16,1.13-.14.15-.21.36-.24.55-.08.61-.27,1.2-.49,1.78-.01.04.03.09.06.15.2.48-.22.87-.34,1.3-.25.04-.36.13-.15.31.27.25-.36.44-.08.74.08.09.07.39-.1.56-.31.29-.42.63-.36.99.03.2-.04.36-.25.47-.24.14.17.19.07.33-.07.09-.13.19-.18.28-.08.16-.1.4-.25.46-.31.13.28.29-.07.36.39.2-.31.51.13.71-.13.19-.21.41-.38.57-.29.26-.43.56-.32.86.08.23-.49.43-.03.65-.22.16-.28.37-.42.56-.14.2,0,.3,0,.44-.01.16-.2.3-.31.45-.13.17.27.3.03.52-.14.12,0,.37-.2.56-.14.15-.15.37-.24.55-.1.18-.27.34-.31.52-.04.22-.07.42-.18.64-.07.12-.07.25-.22.35-.06.04-.15.12-.13.14.43.57-.18,1.04-.22,1.56-.01.13-.14.2-.03.38.11.17-.2.34-.5.33-.06.41.1.81-.31,1.11-.04.03-.06.07-.07.12-.04.22-.07.45-.11.68,0,.01.06.04.06.04-.46.63-.31,1.45-1.08,1.98-.2.14.03.44-.22.57-.35.18-.27.43-.32.66-.04.18-.15.39-.34.5-.29.19-.46.44-.49.68-.03.36-.28.62-.5.88-.15.18-.1.35-.14.51-.04.17-.13.33-.18.49-.04.1-.04.22-.13.3-.13.14-.43.23-.11.44.01.01-.06.09-.1.14-.24.27-.53.52-.7.82-.15.27-.18.59-.25.88-.01.04,0,.09-.03.13-.1.1-.2.2-.31.29.22.1-.04.2-.03.24.13.28-.45.13-.39.36.04.21-.01.39-.25.55-.17.1-.25.28-.41.42-.2.18.08.45-.25.62-.22.12-.42.27-.53.45-.06.07-.36.23-.03.37-.14.12-.31.22-.43.35-.13.12-.18.28-.34.37-.2.12.17.3-.14.4-.24.07-.13.28-.2.42-.14.25-.14.55-.45.77-.15.1-.18.3-.28.46-.04.07-.07.19-.14.2-.45.1-.53.39-.57.66-.04.22-.07.37-.39.46-.38.1-.38.17-.6.51-.11.17-.18.4-.55.29-.2-.05-.39.25-.59,0-.03.02-.04.03-.07.05-.25.16-.29.42-.08.65.06.07.18.12.29.18-.34.12-.25.35-.36.49-.13.18-.39.29-.56.45-.2.17-.45.34-.5.52-.14.46-.59.66-1.04.92-.34.19-.8.38-.73.8-.41.01-.48.33-.74.47-.03.01-.07,0-.08.01-.15.16-.01.5-.32.49-.25-.01-.43.06-.65.09-.06.01-.08.07-.13.09-.34.12-.27.46-.67.58-.31.08-.53.39-.73.63-.17.21-.46.33-.6.56-.11.2-.36.35-.5.53-.17.25-.55.13-.77.28-.43.28-.95.5-1.39.8-.36.23-.8.33-1.21.49-.18.07-.27.1-.41,0-.11.13-.18.3-.34.37s-.32.07-.31.25c-.08-.01-.18-.03-.31-.05-.14.08-.06.48-.55.27.01.26-.35.24-.52.38-.07.06-.21.15-.28.14-.41-.07-.65.1-.84.3-.15.17-.28-.02-.39.01-.29.07-.72.09-.86.25-.25.29-.57-.13-.73.1-.13.19-.32.02-.46.07-.18.05-.41.24-.5.21-.52-.2-1.01.1-1.51.02-.52-.08-1.08.14-1.6-.13-.1-.04-.32-.03-.42.03-.18.1-.32.15-.45-.01-.17-.2-.39.26-.52-.03-.11-.28-.43-.06-.59-.16-.2-.12-.32-.04-.5,0-.11.02-.35-.03-.36-.08-.06-.18-.17-.3-.39-.3-.2,0-.38.08-.57.13-.32-.18-.28-.53-.67-.7-.31-.13-.5-.4-.76-.6-.1-.08-.21-.18-.35-.21-.46-.08-.72-.33-.94-.61-.1-.14-.34-.23-.07-.39.01-.01-.08-.1-.07-.14.17-.23-.7.05-.25-.29-.18-.09-.36-.19-.52-.29-.04-.03-.01-.14.04-.26.01-.04-.01-.02-.06,0,.03.02.06.04.08.06.03-.03.06-.05.08-.08,0,0-.04-.03-.11.02-.34.09-.15-.29-.53-.24-.08.01-.38-.17-.08-.34.03-.01-.07-.15-.13-.22-.29-.37-.6-.73-.91-1.09-.01-.02-.04-.04-.04-.04.32-.2.08-.37.03-.59-.06-.19-.18-.38-.11-.6.03-.1-.28-.59-.36-.68-.06-.07-.14-.2-.1-.23.39-.35,0-.66-.08-.98-.01-.08-.11-.13.01-.2.27-.17.38-.34.1-.58-.06-.05.11-.22.13-.34.01-.08-.14-.23-.11-.26.21-.16,0-.42.14-.5.31-.19-.08-.29-.03-.45.08-.27-.11-.58.18-.84.06-.04.01-.18-.03-.26q-.21-.33.04-.52c-.17-.07-.35-.15-.52-.22.1-.27.5-.47.18-.82-.08-.08.14-.35.27-.6.06.19.1.33.14.5.65-.49.77-1.06.87-1.74-.15.1-.22.15-.28.19-.24-.27-.59-.47-.87-.69.06-.05.07-.09.08-.09.6.05.88-.25,1.04-.61.1-.23.63-.39.24-.73-.07-.06.31-.2.35-.42.06-.3.63-.81,1.08-1.1.08-.05.2-.15.18-.21-.04-.21.11-.26.34-.31.01,0,.01-.17-.04-.22-.04-.04-.17.27-.27.01-.06-.17.14-.14.28-.17.42-.08.42-.09.45-.64-.43.01-.67-.18-.73-.48-.01-.07.06-.24.08-.24.45.02.21-.26.34-.41.08.03.22.1.22.1.15-.18.32-.36.45-.55.11-.18.27-.26.55-.27.52-.01.8-.29.91-.62.06-.16.17-.31.28-.31.46-.01.57-.34.6-.49.04-.3.34-.36.56-.49.06-.03.15-.04.24-.05-.2-.5-.03-.79.57-1.05.63-.27,1.09-.67,1.46-1.14.15-.21.22-.51.67-.55.08-.01.14-.18.24-.26.32-.24.41-.64.93-.73.06-.01.1-.05.13-.09.38-.58,1.07-.99,1.49-1.54.14-.19.27-.28.52-.39.45-.19.88-.45,1.07-.81.14-.28.72-.25.66-.61.66-.12.7-.69,1.22-.92.06-.02.1-.06.13-.09.11-.17.22-.35.32-.51.11-.19.36-.07.5-.13.24-.09.41-.27.59-.43.18-.15.35-.31.53-.45.17-.14.5-.23.52-.37.04-.29.52-.14.56-.38,0-.03.11-.06.13-.09.1-.47.5-.7,1.08-.82.04-.01.08-.06.11-.09.42-.55.7-.75,1.26-1.01.25-.12.48-.27.69-.42.24-.18.46-.2.73.01.43-.65.97-1.25,1.57-1.81.1-.09.25-.16.41-.2.21-.05.29-.12.35-.3.07-.27.35-.46.79-.43.14.01.29,0,.46,0,0-.09.01-.17,0-.22-.03-.09-.08-.19-.13-.28.11.01.21.02.32.03.52.03.77-.22.93-.53.07-.14.14-.28.18-.43.06-.22.36.26.39-.09.01-.13.24-.25.39-.36.15-.09.34-.17.49-.25-.06-.06-.11-.14-.15-.22-.01-.02.11-.1.13-.09.38.16.56-.21.9-.18.34-.55,1.36-.57,1.63-1.2.04-.1.31-.18.49-.24.08-.03.24.05.31.02.08-.03.13-.22.14-.21.43.1.15-.49.65-.37.36.09.41-.25.65-.34.15-.06.31-.12.43-.2.2-.13.8.03.56-.42.49-.27.97-.58,1.49-.82.15-.07.48-.02.55.22.01.04.06.07.08.12q.18-.29.08-.79c.57-.04.94-.35,1.26-.65.27-.25.57-.44.97-.58.22-.08.43-.2.66-.3.04.03.13.07.17.13.11.16.41.33.74.41.08-.31.14-.64.27-.94.04-.12.34-.3.38-.29.41.18.48.01.55-.24.04-.16.21-.28.32-.43.04-.14-.42.14-.24-.2.18-.33.35-.7.28-1.08-.04-.22.11-.34.41-.42.24.18.31.51.77.58.35-.31-.17-.61-.06-.95.22.08.43.16.65.24.27-.22.62-.27,1.02-.26.04,0,.1-.08.2-.2.01-.04-.01-.02-.06,0,.03.02.06.04.08.06.03-.03.06-.05.08-.08,0,0-.04-.03-.11.02-.21-.1-.36-.26-.52-.44-.1.02-.25.06-.41.08-.21.03-.21-.08-.25-.21-.01-.04-.22-.04-.29-.1-.22-.2-.36.03-.38.08-.06.19-.06.4-.07.64-.11-.05-.18-.08-.28-.13-.04.08-.08.16-.11.22-.21-.04-.42-.08-.66-.14-.14-.24.11-.48.01-.77-.07-.22.18-.51.34-.77.15-.27.21-.55.18-.84-.01-.09-.03-.19,0-.27.06-.12.17-.22.25-.34.17.2.32-.01.49-.01.18-.01.27.27.55.09.08-.05.32.02.69.05-.27-.15-.42-.28-.49-.27-.31.07-.57-.24-.86-.02-.17-.18-.35-.35-.52-.52-.03-.03-.06-.06-.07-.08.1-.1.2-.21.29-.3-.31-.13.07-.2.06-.31,0-.12.17-.24.15-.36-.04-.37.13-.69.28-1.02.01-.03.07-.08.07-.09-.43-.42.21-.38.32-.47-.04-.19-.17-.38-.08-.47.25-.28.24-.52.01-.81-.06-.07-.08-.21-.03-.25.29-.26.14-.56.17-.84.01-.15.24-.95.32-1.09.03-.06.06-.13.04-.19-.04-.33.01-.62.38-.85-.07-.22.13-.33.29-.46.36-.29.35-.49,0-.8-.34-.29-.27-.27-.15-.62.07-.2.45-.19.34-.31-.13-.16-.11-.3-.1-.45.06-.46-.15-.94.17-1.39.04-.05-.11-.18-.2-.3.21-.16.42-.31.56-.42.11-.33-.6-.17-.28-.57.01-.04-.01-.02-.06,0,.03.02.06.04.08.06.03-.03.06-.05.08-.08,0,0-.04-.03-.11.02-.18.06-.29.06-.46.06-.01,0,.01,0,.04,0-.01-.03-.03-.07-.06-.1-.01-.01-.07.01-.11.02.03.03.06.05.13.08-.04.14-.13.27-.22.4-.1.13.1.28-.14.4-.13.07-.14.27-.21.41-.35-.08-.57-.29-.73-.57-.2.16-.34.27-.48.38.07.12.15.22.24.36.07-.09.13-.18.18-.28.38.25.52.52.29.89-.31.5-.36,1.09-.9,1.51-.01.01.1.09.15.16-.46.29-.76.64-.77,1.13,0,.18-.28.43-.48.58-.27.2-.11.49-.41.64.14.34-.18.56-.38.78-.41.43-.55.95-1,1.34-.11.09-.04.35-.38.29-.01,0-.1.16-.07.17.28.16.04.24-.07.36-.06.06-.13.2-.08.22.13.09.17.18,0,.25-.48.2-.5.71-1.09.82.24.25-.28.44-.13.61.17.19-.08.3-.1.31-.38.26-.49.64-.8.93-.11.1.01.14.01.2,0,.07-.14.16-.22.23-.1-.08-.21-.18-.32-.02-.06.07-.14.16-.13.23.08.44-.07.83-.46,1.13-.07-.01-.17-.05-.25-.04-.07.01-.17.08-.2.14-.04.1-.03.22-.08.31-.04.07-.17.14-.27.16-.13.03-.27.03-.38.04.15.1.27.2.39.28-.03.02-.06.05-.08.07-.27-.09-.53-.19-.84-.29v-.44c-.14-.03-.24-.06-.34-.09-.13-.03-.25-.05-.38-.08.04.12-.01.3,0,.33.25.23.06.47.13.67-.29.08-.53.16-.74.22.11.17.2.28.27.39.1-.09.2-.18.36-.23.06.01.03-.01,0-.04l-.08.06s.07.04.11.06c0,0,.04-.03-.03-.08,0-.08.07-.14.15-.18.13.16.31.02.46.05.2.03.38.09.59.15-.01.1.03.26-.06.3-.27.15-.24.41-.39.57-.2.19-.34.36-.29.6.01.05-.07.12-.14.16-.11.07-.25.14-.36.2.31.21-.03.15-.14.2-.14.05,0,.29-.29.26-.04,0-.13.08-.14.14-.08.39-.66.55-.76.93-.06.2-.25.38-.42.56-.1.1-.22.23-.38.03-.06.09-.29.07-.2.28.17.34.31.69-.39.85-.2.04-.24.22-.27.4-.01.14-.15.38-.45.13-.2.14-.32.27-.49-.05-.07-.13-.39-.19-.35-.43.01-.08-.08-.21-.18-.28-.29-.22-.41-.49-.35-.79.04-.24-.07-.47-.24-.61-.63-.5-.74-1.2-1.19-1.76-.08-.1.15-.35.07-.45-.13-.16-.01-.34-.13-.44-.21-.23-.01-.38.06-.48.6-.03,1.09.39,1.75.08.22-.1.67-.07.79.26-.06.03-.13.07-.18.1.06.05.13.12.18.17-.11.18-.22.35-.35.55.24-.03.49.13.55-.15,0-.03.11-.09.13-.08.08.03.17.17.22,0,.01-.05-.03-.14-.08-.17-.11-.05-.25-.08-.46-.15v-.27c.18-.06.35-.13.52-.19-.11-.17-.22-.34-.28-.57.01-.04-.01-.02-.06,0l.08.06s.06-.05.08-.08c0,0-.04-.03-.11.02-.21.07-.39.28-.53.05-.04-.07-.06-.18-.14-.23-.31-.22,0-.3.14-.44.25.13.52.25.79.39.24-.12.22-.43.7-.47-.49-.18-.88-.34-1.3-.46-.2-.06-.41-.17-.65.05-.29.26-.83.2-1.25.29-.04.01-.17-.07-.25.02-.11.13-.34.27-.31.38.08.31-.31.31-.48.48-.1-.13-.25-.24-.28-.37-.03-.2-.13-.45.32-.5.08-.01.17-.13.21-.2.01-.03-.06-.14-.1-.14-.08-.01-.17.03-.25.05.03-.06.01-.16.07-.18.36-.16-.24-.39.08-.53-.24-.1.15-.38-.21-.44-.13-.34-.49-.62-.18-1.04.24-.33-.01-.63-.59-.91-.14.1-.29.23-.46.35q-.36.26-.95.06s.01,0,.04,0c-.01-.03-.03-.07-.06-.1-.01-.01-.07.01-.11.02.03.03.06.05.13.08.06.26.21.44.53.59.38.17.34.31-.07.55-.21.13-.41.25-.74.46-.03-.01.06-.07.14-.14-.04-.02-.1-.07-.13-.07-.08.03-.18.06-.24.12-.03.03.04.1.21.09.18.21.6-.05.72.18-.24.27-.18.7-.76.85q-.39-.19-.55.01c-.06.07-.11.14-.17.21.18.05.35.1.53.16-.07.09-.13.19-.2.29-.74-.14-.69-.7-1.09-1.04.13-.06.25-.13.45-.15.06.01.03-.01,0-.04l-.08.06s.07.04.11.06c0,0,.04-.03-.03-.08-.08-.06-.08-.08-.08-.1-.01-.19-.01-.18-.32-.24-.1-.02-.2-.08-.29-.13-.18.26-.36.48-.31.77.03.18-.01.37.24.48.06.02.13.06.13.09-.03.2.01.4.27.45.14.03.35-.09.57-.16.11.25.21.46.34.72h-.81c.04.17.08.3.13.44.01.04.08.08.07.12-.07.17-.36.33-.01.5-.11.17-.2.36-.32.51-.13.17-.29.33-.45.48-.06.05-.13.09-.2.15-.15.13-.31.26-.46.39.32.18-.22.31-.06.52.13.15-.01.33-.22.47-.15.1-.2.3-.32.44-.18.21-.15.51-.55.65-.1.03-.2.19-.18.27.08.45-.32.66-.74.83-.18.07-.14.21-.22.23-.34.09.15.25-.08.36-.18.08-.31.21-.27.4.01.04-.08.12-.14.13-.35.04-.36.22-.42.44-.04.18-.27.33-.39.49-.13.18-.57.1-.55.45.01.17-.28.37-.42.55-.08.1-.15.23-.27.33-.22.2-.69.26-.63.62-.57.15-.63.64-1.01.91-.25.19-.43.45-.56.71-.08.17-.17.27-.42.33-.01,0,.01,0,.04,0-.01-.03-.03-.07-.06-.1-.01-.01-.07.01-.11.02.03.03.06.05.13.08.04.04.07.12.04.14-.15.12-.35.2-.5.31-.15.13-.22.36-.41.41-.29.09-.34.39-.57.43-.31.05-.32.26-.52.37-.21.13-.36.31-.56.46-.14.1-.21.2-.21.36,0,.17-.17.27-.42.28-.08,0-.21,0-.25.03-.18.15-.06.39-.18.5-.14.12-.46.1-.62.28-.07.09-.14.23-.25.26-.57.14-.97.46-1.44.7-.25.14-.38.27-.32.55-.15.01-.29.03-.43.01-.15-.01-.31-.09-.45-.08-.08.01-.15.15-.27.22-.01,0,.01,0,.04,0-.01-.03-.03-.07-.06-.1-.01-.01-.07.01-.11.02.03.03.06.05.13.08.04.26-.14.45-.35.63-.14.13-.38.21-.43.35-.15.38-.5.45-.94.39-.14.35-.38.57-.8.71-.28.1-.55.35-.66.57-.13.26-.38.39-.66.46-.55.15-.95.43-1.32.72-.11-.02-.2-.04-.28-.06-.04.27-.25.36-.6.38-.17.01-.32.18-.49.26-.6.28-1.23.55-1.84.83-.13.06-.22.16-.34.24-.03-.05-.06-.13-.1-.21-.04,0-.08,0-.13.01-.35.16-.7.3-1.04.46-.39.19-.91.22-1.39.3-.28.05-.6-.08-.84.14-.14-.18-.55.08-.65-.21-.04-.13-.13-.24-.2-.39.1-.06.18-.18.31-.21.21-.05.45.03.69-.09.11-.06.29-.24.57-.08.1.05.31-.19.55-.26s.52.04.7-.12c.08-.07.13-.19.22-.25.07-.04.13.14.32.03.7-.38,1.53-.61,2.16-1.08.14-.1.36-.15.5-.25.17-.13.45-.14.55-.37.06-.16.31-.3.65-.3.22,0,.29-.36.65-.27.03-.06.07-.13.07-.18.01-.15,0-.3.27-.1.01.01.15-.05.18-.1.22-.39.69-.62,1.05-.91.1-.08.22-.17.35-.19.48-.07.63-.41.91-.64.17-.14.18-.37.35-.5.17-.15.39-.29.63-.34.43-.06.48-.36.69-.55.1-.09.11-.24.2-.35.14-.21.41-.36.8-.51.22-.09.53-.19.62-.35.13-.23.38-.35.53-.52.03-.03-.06-.13-.08-.2.66-.13.95-.52,1.26-.93.24-.31.17-.8.81-.91.06-.01.06-.13.11-.16.28-.15.03-.5.52-.61.31-.06.52-.38.8-.55.08-.05.29.01.49.02.22-.22-.18-.48-.04-.75.01-.04-.04-.12-.01-.15.32-.29.66-.57.97-.87.18-.19.32-.41.42-.63.1-.23.2-.36.52-.17.01.01.18-.07.21-.14.08-.18.1-.38.2-.56.18-.19.35-.26.56-.3.06.01.03-.01,0-.04l-.08.06s.07.04.11.06c0,0,.03-.03-.03-.08ZM28.88,71.01s-.06-.05-.08-.08c-.03.02-.06.04-.08.06.04.02.07.04.11.06,0,0,.04-.03-.2-.13h.08s-.03-.07-.06-.1c-.01-.01-.07.01-.11.02.03.03.06.06.34.17ZM48.96,70.11c-.06.01-.1.03-.15.04.06.03.1.06.15.09-.04.28-.43.02-.55.2.04.07.29.13.06.24-.01.01.1.12.11.19.01.1,0,.22,0,.4v-.06s-.1.02-.14.04c-.01.01.01.05.03.08.04-.02.07-.04.11-.13.56-.17.6-.58.73-.93.01-.04-.11-.12-.17-.17-.01-.04-.04-.07-.06-.12-.04.04-.08.07-.13.12ZM71.16,33.61h.08s-.03-.07-.06-.1c-.01-.01-.07.01-.11.02.03.03.06.05.34.16-.03-.03-.06-.05-.08-.08-.03.02-.06.04-.08.06.04.02.07.04.11.06.01.01.04-.02-.2-.12ZM59.19,62.82s-.07.04-.11.06l.08.06s.06-.05.08-.08c0,0-.04-.03-.17.08h-.27.08s-.03-.07-.06-.1c-.01-.01-.07.01-.11.02.03.03.06.05.17.08,0,.04,0,.09-.01.16h-.53c.1.15.18.26.28.39.1-.15.18-.27.27-.41.07-.04.13-.09.29-.26ZM50.99,50.2v-.06s-.1.02-.14.04c-.01.01.01.05.03.08.04-.02.07-.04.11-.13.06,0,.13,0,.18-.02,0,.14.04.26-.01.37-.04.08-.11.12-.07.25.06.16-.13.39-.39.49-.22-.22-.39.03-.57.05-.24.03-.48.15-.69.24-.06.02-.1.12-.08.17.01.04.15.1.18.09.28-.16.49-.02.74.07.24.09.48.19.57-.15.03-.1.31-.1.32.03.03.3.35.2.46.17.45-.14.73-.71.59-1.07-.07-.19-.13-.38-.18-.52-.28-.06-.52-.13-.86-.18-.01-.04-.04-.07-.06-.12-.06.04-.1.08-.14.18ZM62.41,38.43s.04.07.06.12c.04-.04.08-.07.13-.12.13-.03.25-.05.36-.09.01-.01.01-.1-.01-.12-.2-.07-.41-.17-.53.07-.06.01-.1.03-.15.04.06.03.1.06.15.09ZM42.44,53.04s-.07.04-.11.06l.08.06s.06-.05.08-.08c0,0-.04-.03-.17.15v-.06s-.1.02-.14.04c-.01.01.01.05.03.08.04-.02.08-.04.22-.25ZM45.72,51.88c-.13-.05-.2-.09-.22-.08-.08.03-.14.08-.21.14.13-.01.24-.02,0,.06v-.06s-.1.02-.14.04c-.01.01.01.05.03.08.03-.03.07-.05.55-.18ZM62.94,61.78s-.06-.05-.08-.08l-.08.06s.07.04.11.06c0,0,.04-.03-.17-.45-.07.09-.13.15-.11.17.04.06.11.1.18.16-.03-.08-.04-.18.15.08ZM56.54,64.68c-.14.09-.21.13-.21.14.01.06.06.13.08.19.03-.08.07-.17-.08,0h-.18c.06-.22-.07-.31-.45-.27h.08s-.03-.07-.06-.1c-.01-.01-.07.01-.11.02.03.03.06.05.17.08-.01.04-.03.08-.06.1-.18.12-.11.16.08.17h.34s.04.07.06.12c.04-.03.08-.07.34-.44ZM57.62,49.03h.28c-.04.23-.46.4-.21.67.41-.17.31-.42.11-.67,0-.09,0-.19.04-.24.08-.05.22-.12.22-.18.04-.3.04-.61.06-.91,0-.01-.11-.05-.15-.04-.07.02-.18.08-.17.1.08.18.24.36.04.56.29.17-.25.28-.06.44-.28.01-.15.17-.18.34.01-.02.01-.04.01-.06-.04.01-.1.02-.14.04-.01.01.01.05.03.08.03-.02.07-.04.11-.13ZM71,33.83c-.07.09-.14.18-.13.19.07.05.17.09.27.14.03-.05.11-.12.08-.15-.03-.06-.13-.1-.36.08v-.06s-.1.02-.14.04c-.01.01.01.05.03.08.06-.02.08-.04.25-.33ZM50.91,39.8h.08s-.03-.07-.06-.1c-.01-.01-.07.01-.11.02.03.03.06.05.57.13q-.43-.03-.29.22c.07-.05.15-.12-.2-.26ZM50.26,48.54c.13-.09.17-.1.17-.13.03-.1.03-.21-.15-.25-.07-.01-.13-.02-.2-.03.01.06,0,.13.03.19.04.08.1.16.42-.23-.04.02-.07.04-.11.06l.08.06s.06-.05.08-.08c.01-.01-.01-.03-.32.41ZM64.62,38.16c-.06-.01-.1-.03-.15-.04-.06-.02-.13-.03-.2-.04-.01.04-.04.12-.03.13.11.04.24.07.36.1q.22.14.56-.07c-.11-.06-.21-.15-.34-.19-.04-.03-.14.06-.21.12ZM74.55,53.38s-.06-.05-.08-.08c-.03.02-.06.04-.08.06.04.02.07.04.11.06,0,0,.04-.03-.11-.03,0-.2.03-.31-.01-.42-.01-.04-.18-.05-.28-.07-.03.1-.08.21-.07.3.01.05.15.08.53.18ZM57.16,64.05h.08s-.03-.07-.06-.1c-.01-.01-.07.01-.11.02.03.03.06.05.2.05-.04.13-.07.21-.1.28-.04.08-.08.18-.13.28h.5c.18-.25,0-.4-.39-.53ZM63.7,38.7q-.22-.14-.5.06c.13.34.36.57.9.57-.07-.21-.14-.42,0-.96-.14.09-.21.13-.21.14.01.06.06.13.08.19.03-.08.07-.17-.08,0-.06.01-.13.01-.18.01ZM67.5,50.09c-.07.09-.13.15-.11.17.04.06.11.1.18.16-.01-.09-.03-.18,0,0v.27c.42-.15.8-.22,1.28-.34-.03-.03-.06-.05-.08-.08-.03.02-.06.04-.08.06.04.02.07.04.11.06,0,0,.04-.03-.11-.13-.14-.21-.29-.42-.63-.15-.38-.09-.2.33-.55-.03ZM52.73,57.87c-.14-.1-.17-.16-.2-.16-.08.01-.17.04-.25.06.11.02.22.05,0,.01,0-.23-.01-.39,0-.55.01-.07.07-.2.13-.21.2-.01.29-.08.22-.21-.04-.08-.17-.15-.31-.25-.13.18-.18.39-.32.42-.46.12-.35.28-.14.47.1.09.21.17.87.41ZM66.3,34.07q-.43-.03-.29.22c.08-.06.17-.13-.07-.2-.04-.24.01-.47-.11-.58-.21-.18.31-.3.01-.43h-.62c-.04.53.03.65,1.08.99ZM64.99,63.43c-.1-.12-.21-.34-.29-.33-.39.02-.83-.24-1.18.06-.11.09-.45.01-.36.21.13.27.29.09.45-.01,0,0,.04.02.06.04.2.18.6.13.66.07.22-.26.49.2.77-.25-.04.02-.07.04-.11.06.03.02.06.04.08.06.03-.03.06-.05.08-.08.01,0-.03-.02-.15.16ZM76.95,51.93c-.29.12-.6.23-.94.36.1.06.18.15.28.17.07.02.17-.04.25-.07-.01.07,0,.17-.06.23-.17.2.15.17.2.27.18-.12.28-.33.62-.14.17.09.55-.09.55-.23,0-.18-.15-.3-.39-.3-.29,0-.45-.09-.42-.41-.04.02-.07.04-.11.06.03.02.06.04.08.06.03-.03.06-.05.08-.08.03,0-.01-.02-.14.08ZM63.61,58.68h.08s-.03-.07-.06-.1c-.01-.01-.07.01-.11.02.03.03.06.05.01.03.2.21.32.33.41.45.13.2.43.01.43.06.04.38.29.06.43.09.17.03.34.08.52.14-.14-.2-.28-.35-.35-.5-.07-.15-.08-.3-.13-.48h1.01c-.13-.16-.21-.31-.35-.44-.32-.3-.74-.29-1.11-.03-.28.2-.13.42-.17.63-.04.19-.25.24-.63.14ZM69.04,53.67c-.22.21-.43.41-.67.63-.06-.12-.1-.19-.13-.27q-.35.4-.83.3s.1-.09.15-.15c-.25,0-.86-.17-1.18-.3-.18.26-.45-.18-.63.04q.2.27.73.44c.1.03.29.05.29.09.1.38.34.25.65.15.28-.1.6-.02.67.16.03.06-.25.13-.04.24.08.04.1.15.17.29.21-.71.32-.82,1-1.02,0,.15.07.31-.01.4-.27.27-.06.47.13.74.08-.21.28-.44.2-.53-.17-.18-.13-.35-.11-.51.03-.27-.17-.45-.38-.7ZM61.86,63.91c-.1-.04-.27-.14-.28-.13-.36.3-.22-.1-.49-.17-.01.02-.04.15-.11.17-.13.03.11.39-.25.16-.14-.08-.25.19-.41-.01-.06-.07-.24-.1-.36-.15-.24-.07-.25-.05-.39.24-.14.3-.21.64-.57.86-.06.03-.03.16,0,.23.03.09.08.18.15.33-.39-.06-.73-.13-.74-.35-.04-.38-.31-.23-.57-.2.08.22.08.48.27.61.29.22-.08.31-.07.47.01.14.04.26-.25.28-.11,0-.28.19-.28.29,0,.2-.17.29-.32.39-.22.15-.46.36-.7.37-.43.02-.35.38-.67.44-.52.12-.83.43-1.21.7-.13-.14-.25-.27-.43-.47-.08.19-.24.38-.17.46.2.21.07.37-.06.5-.24.25-.59.43-.79.72-.1.15-.42.22-.65.29-.25.08-.38.19-.36.41,0,.23-.14.1-.24.03-.14.13-.52.03-.5.35,0,.26-.29.42-.65.46-.08.01-.22.03-.24.06-.11.45-.81.52-1.05.9-.11.18-.42.23-.59.42-.14.16-.48.23-.74.29-.38.09-.53.29-.72.52-.1.1-.01.28-.32.28-.34,0,.27.23-.1.31-.29.07-.55.23-.81.37-.24.12-.56.2-.69.37-.17.23-.56.23-.67.46-.2.4-.66.64-1.05.91-.34.23-.73.4-.72.81,0,.05-.28.16-.29.15-.24-.19-.38-.05-.52.06-.28.23-.56.46-.81.7-.14.14-.36.16-.42.42-.07.28-.49.52-.77.79-.57-.07-.63.29-.84.55-.04.05-.08.15-.13.15-.41-.02-.35.3-.57.43-.21.12-.36.33-.59.4-.35.12-.34.33-.42.53-.01.02-.13.01-.15.03-.27.24-.62.4-.95.57-.17.09-.34.25-.53.35-.03.01-.32.17-.32.18-.25.45-.27,1-.91,1.3-.11.43-1,.58-.79,1.13-.08.02-.21.01-.24.05-.18.21-.35.44-.53.66-.48,0-.46.36-.7.53-.25.18-.45.4-.66.62-.15.18-.29.37-.42.56-.07.09-.07.25-.17.28-.62.23-.31.96-1.09,1.1-.01,0-.03.04-.03.06.07.27-.07.48-.36.65.17.33-.39.42-.41.7,0,.06-.2.12-.24.2-.04.06.07.2.03.23-.34.27-.31.61-.31.94,0,.06-.03.14-.07.18-.17.14-.32.24-.31.46.01.13-.29.21-.08.41.06.04-.18.26-.27.4-.03.04,0,.09,0,.14-.13.47-.18.94-.39,1.39-.08.2-.18.38-.15.57.04.28-.1.51-.24.75-.1.17-.34.39-.27.5.07.14-.01.28,0,.29.43.2-.21.38,0,.59.24.22-.18.34-.2.46.14.12.31.2.32.29.01.17-.03.35-.08.51-.07.21-.11.7-.08.96.01.18.1.41-.01.55-.22.27.03.4.14.62.14.26.55.19.62.42-.11.09-.24.19-.35.28.15.17.28.41.48.45.27.05.24.15.25.28.01.1.04.22.11.3.25.31.74.46,1.05.75.15.15.62.09.88.21.2.08.38.01.55.06.25.08.6.34.79.18.34-.29.62.16.76-.01.18-.21.32.09.49-.04.1-.07.28-.24.57-.12.11.05.35-.05.53-.09.06-.01.11-.03.14-.07.31-.41.94-.3,1.4-.47.1-.03.32.02.35-.02.28-.39.95-.35,1.3-.67.18-.17.46-.27.7-.4.14-.07.38-.1.43-.2.15-.29.56-.34.81-.51.34-.24.91-.26,1.11-.63.87-.25,1.16-.98,1.94-1.31.04-.02.04-.08.08-.12.17-.15.35-.29.53-.43.13-.08.28-.15.38-.24.18-.17.35-.36.52-.53-.03-.02-.08-.07-.14-.12.21-.07.45-.12.62-.21.15-.09.21-.26.34-.37.14-.12.41-.19.48-.33.08-.17.53-.24.24-.5.24-.13.48-.25.7-.39.14-.08.34-.19.35-.3.03-.23.22-.17.39-.18h.38c-.15-.25-.18-.36-.07-.43.28-.18.48-.39.52-.67.43-.07.43-.34.48-.6.03-.14.15-.28.29-.39.36-.28.45-.71.9-.98.14-.08.03-.38.17-.48.22-.18.24-.39.38-.58.14-.19.34-.36.52-.53.2-.21.15-.52.5-.67-.08-.45.27-.74.66-1.04.07-.05.04-.17.08-.25.08-.18.17-.36.25-.55.08-.17.34-.31.15-.52.2-.15.41-.28.57-.44.08-.07.11-.2.11-.3.01-.23.11-.41.55-.45-.03-.03-.06-.05-.08-.08-.03.02-.06.04-.08.06.04.02.07.04.11.06,0,0,.04-.03-.11-.13.03-.13-.01-.3.08-.39.18-.16.24-.35.34-.51.14-.25.27-.51.53-.73.28-.24.46-.61.5-.93.1-.7.53-1.31.84-1.95.2-.42.5-.8.67-1.24.15-.4.43-.77.35-1.2,0-.01.04-.03.06-.05.36-.24.22-.61.43-.9.06-.07-.22-.26.15-.24.13-.22.42-.48.34-.65-.11-.24-.01-.36.1-.55.2-.28.34-.59.49-.88.01-.04-.04-.09-.04-.15,0-.13-.04-.26.01-.37.07-.14.17-.3.32-.38.25-.12-.15-.28.13-.42.18-.08.34-.34.31-.5-.03-.18-.13-.31.06-.5.14-.15.27-.41.17-.55-.15-.24,0-.39.1-.56.08-.14.24-.25.28-.39.1-.29.04-.64.22-.89.2-.28.14-.59.32-.87.14-.23.36-.46.31-.75-.03-.15.17-.3.24-.47.08-.18.07-.43.22-.55.27-.19-.13-.31,0-.44.34-.37.27-.8.39-1.2.08-.27-.15-.52-.01-.75.13.01.24.01.34.02-.08-.22.27-.15.31-.23.14-.26.28.14.42-.03-.06-.21.14-.47-.17-.67.27-.08-.03-.24.07-.34.15-.17.31-.34.46-.5-.2-.16-.43-.25-.25-.61-.04.02-.07.04-.11.06.03.02.06.04.08.06.03-.03.06-.05.08-.08-.01.04-.04.02-.17.14ZM53.22,52.98c.29.12.53.04.69-.16.04-.06-.07-.19-.1-.26.15-.12.36-.23.48-.39.11-.16.41-.13.42-.42.03-.41.35-.82.53-1.18.48.09.7.25.76.6.04.22.36.42.53.58.29-.07.5-.12.76-.18-.1-.19-.2-.29-.46-.37-.14-.04-.14-.34-.21-.52-.07.05-.14.09-.2.14-.04-.26-.49-.25-.55-.43s-.52-.33-.14-.57c.01-.01-.13-.16-.22-.26-.06.12-.06.21-.13.26s-.2.07-.38.13c.21.05.31.08.43.12-.17.06-.22.35-.46.09-.2.07-.28.29-.57.27-.2-.02-.41,0-.62,0q0,.41.46.71s.01.08,0,.09c-.24.13.1.18.06.25-.06.12-.15.23-.28.33-.21.17-.43.31-.65.46q.31.47-.15.71ZM48.16,48.16c-.32-.16-.53-.23-.72-.35-.08-.05-.17-.19-.13-.22.41-.36.03-.57-.17-.87-.18-.28-.35-.13-.62-.16.08.29.42.53.11.81-.24-.25-.31.03-.48.09.27.15.52.29.79.44-.07.12-.15.22-.24.36.1.03.17.06.25.08.2.04.41.1.6.12.06,0,.11-.17.2-.23.04-.05.15-.04.39-.07ZM49.23,43.16c-.21-.05-.45-.12-.7-.16-.07-.01-.24-.01-.24,0-.08.33-.67.3-.77.65.27-.02.49.05.77-.07.18-.08.31.24.63.25.24.01.43.35.67.36.34.02.21.24.41.31.14-.16.28-.33.35-.42-.17-.13-.34-.23-.46-.33-.01.02-.04.09-.13.26-.2-.33-.36-.6-.53-.86ZM53.47,65.98c.14.1.06.44.46.21.14-.08.36-.09.53-.13.18-.36-.41-.38-.43-.66-.31.28-.6.55-1.14.44-.03-.01-.07-.01-.08,0-.1.08-.2.17-.28.25.28.02-.29.35.2.3.11-.01.24.1.36.17.14-.22.25-.4.38-.59ZM60.65,42.47c-.24.12-.48.3-.76.34-.14.01-.24-.14-.27.09-.03.31.22.07.31.12.34.16.65.36,1.05.59.13-.1.25-.19.35-.27-.25-.34-.48-.61-.69-.86ZM67.93,33.12c-.06-.13.15-.3-.22-.36-.32-.04.07-.13.01-.21-.18-.06-.39-.14-.62-.22-.22.4-.55.77-.03,1.12.31-.13.57-.23.86-.34ZM74.04,18.85c.27.05.45-.19.7,0v-.44c0-.13-.03-.25-.04-.45-.17.26-.39.08-.42.1-.39.29-.18-.14-.34-.15-.15-.02-.29-.08-.43-.13-.15.23-.03.46.22.49.34.04.27.18.28.33,0,.09.01.18.03.24ZM70.13,34.5c-.42-.25-.69-.23-.7.06-.01.25-.21.27-.39.36-.03.39.69.48.57,1,.17-.25.27-.4.39-.59-.21-.1-.39-.19-.55-.26.03-.29.42-.35.67-.57ZM61.3,60.78c0-.15-.06-.29.01-.36.15-.14.25-.29.15-.42-.07-.1-.31-.14-.49-.21.03.39-.87.47-.52.96.27-.24.52-.18.84.02ZM51.01,49.39c.13.05.25.09.38.15.14.06.34-.16.45.04l.13-.09c.24-.14.1-.23-.03-.38-.28-.35-.27-.36-.93-.27.25.18.22.37,0,.56ZM64.69,39.34c.41-.14.77-.2.79-.28.04-.29.32-.08.41-.16.14-.13.22-.28.36-.48-.2-.05-.41-.12-.62-.19-.08.19-.1.38-.22.45-.08.05.1.48-.31.17-.1.13-.18.24-.41.49ZM67.62,38.18c-.41.4-.35.52.41.81.1-.17.18-.33.25-.45-.25-.15-.45-.25-.66-.36ZM53.08,37.05c.11-.17.18-.37.34-.5.27-.22-.07-.22-.17-.31-.27.24-.53.46-1.02.43.15.17.52.31.86.39ZM50.25,42.34c-.43-.09-.66-.33-.86-.61-.06.22-.11.42-.17.64.28.06.6.4,1.02-.03ZM53.01,24.31c.28.03.56.17.77-.02.14-.13.46-.19.25-.47-.38.12-.73.23-1.02.49ZM68.6,52.91c-.2.09-.36.18-.53.25-.25.1-.15.2-.01.3.08.05.18.09.27.14q.56-.41.28-.69ZM83.55,49.07c-.21-.06-.41-.14-.63-.17-.07-.01-.25.07-.25.09.01.13.04.27.15.35.11.07.35.13.46.08.13-.04.17-.2.27-.36ZM59.85,61.56c.32-.02.63.08.8-.14.08-.12.06-.26.08-.38-.29-.08.01.43-.42.15-.03-.02-.28.03-.46-.01v.38ZM71.63,18.39c.29.33.48.04.73.02-.01-.16-.03-.3-.04-.46,0-.01-.04-.03-.07-.04-.48-.03-.38.36-.62.48ZM44.08,51.24c.1-.18.17-.34.29-.48.11-.14.28-.25.55-.5-.67.1-.79.44-1.08.64-.03.01.14.2.24.35ZM49.76,41.85c.35-.15.87-.2.6-.7-.07.13-.14.22-.2.3-.07-.04-.18-.14-.2-.13-.24.14-.36.29-.21.52ZM64.89,37.12c.39-.13.62-.19.81-.25-.15-.18-.31-.34-.5-.56-.01.16,0,.27-.04.37-.03.12-.13.22-.27.44ZM71.46,19.43c.08.2.14.36.22.55.15-.01.32-.02.43-.03-.08-.19-.14-.35-.21-.51h-.45ZM50.42,49.74h-.73c.01.15.01.26.03.43.18-.15.31-.19.43-.03.1-.13.17-.25.27-.4ZM50.25,68.81c.07-.59-.41.03-.59-.15-.07-.07-.2,0-.29.3.29-.05.59-.1.88-.16ZM67.47,56.47c-.25-.22.49-.33.17-.38-.29-.05-.17-.26-.36-.29-.08.12-.15.23-.24.35l.43.33ZM62.01,42.45c.17.14.42.14.45.35.01.09.28.06.31-.06.03-.08,0-.17,0-.28h-.76ZM47.12,71.62c-.11-.17-.17-.3-.29-.41-.08-.07-.27-.09-.41-.14.22.19.13.58.7.55ZM49.16,45.6c.13-.06.2-.13.29-.14.11-.02.25,0,.35-.02.04-.01.06-.12.08-.18-.06,0-.13-.01-.18-.01q-.42.02-.55.35ZM39.62,62.22s-.08-.07-.13-.1c-.27.07-.55.14-.84.22.2.07.38.2.49.17.17-.05.31-.19.48-.28ZM45.05,50.52l-.1.07c.06.08.08.19.15.26.06.05.17.07.27.1.03-.07.1-.18.07-.22-.11-.09-.27-.15-.39-.22ZM48.97,49c.17-.13.32-.24.45-.36h-.45v.36ZM48.41,46.89c-.18.14-.31.2-.35.28-.03.04.08.14.13.2.07-.04.18-.08.22-.14.03-.06,0-.16,0-.35ZM65.94,50.7v.39c.2-.07.36-.13.53-.19-.18-.06-.35-.13-.53-.2ZM62.59,44.51c.28.12.41.16.45.18.08-.02.21-.06.34-.1-.03-.02-.04-.04-.07-.06-.18-.01-.34-.01-.72-.01ZM50.84,39.44q.31-.25-.04-.42c.01.14.03.25.04.42ZM55.04,52.81c-.32-.15-.39.05-.55.16.31.16.38-.04.55-.16ZM59.43,49.13v-.04c-.14-.06-.28-.13-.43-.18-.01,0-.04.03-.06.04.11.07.22.16.35.22.01.01.08-.03.14-.04ZM66.26,56.46q.39-.05.25-.38c-.07.12-.14.22-.25.38ZM53.8,55.31c.1-.03.22-.08.32-.12-.13-.12-.2-.18-.32-.29v.41ZM63.23,38.16s-.06.03-.06.04c0,.06-.03.14.01.18.04.04.15.03.24.05-.03-.06-.03-.13-.07-.19-.03-.03-.08-.05-.13-.08ZM63.67,40.28c.34.07.48.04.38-.1-.1.03-.24.06-.38.1ZM50.63,68.36c.1-.02.24-.06.45-.1-.38-.12-.52-.07-.45.1ZM45.31,51.31s-.1-.03-.15-.05c-.01.04-.07.08-.06.12.01.04.07.08.11.12.03-.03.04-.07.1-.18ZM65.95,62.39h.1v-.27h-.1v.27ZM36.11,103.85h.1v-.27h-.1v.27ZM65.31,37.48c-.07.03-.14.05-.14.06,0,.06.04.12.06.18.04-.02.11-.03.11-.05.01-.06-.01-.12-.03-.19ZM62.73,62.53h-.1v.27h.1v-.27ZM63.47,58.95c-.07.03-.14.05-.14.06,0,.06.04.12.06.18.04-.02.11-.03.11-.05.01-.05-.01-.1-.03-.19ZM69.39,47.22c-.04-.05-.07-.1-.08-.1-.08,0-.15.03-.24.04.03.03.04.08.07.08.07,0,.15-.01.25-.02ZM52.74,55.89s-.04.07-.07.12c.06.01.11.05.15.04.06-.01.11-.05.15-.08-.04-.01-.1-.03-.24-.07ZM48.03,45.62c-.1-.01-.18-.03-.27-.02-.03,0-.04.05-.07.08.08.01.15.04.24.04.03,0,.06-.06.1-.1ZM54.3,54.57c-.1-.01-.18-.03-.27-.02-.03,0-.04.05-.07.08.08.01.15.04.24.04.03,0,.06-.05.1-.1ZM53.8,54.26h.1v-.27h-.1v.27ZM63.92,41.04h.1v-.27h-.1v.27ZM62.21,44.1c-.1-.01-.18-.03-.27-.02-.03,0-.04.05-.07.08.08.01.15.04.24.04.03,0,.06-.05.1-.1ZM47.58,44.19s-.04.07-.07.12c.06.01.11.05.15.04.06-.01.11-.05.15-.08-.04-.01-.1-.03-.24-.07ZM57.6,51.42l-.07-.05s-.04.06-.06.09c0,.01.04.03.06.04.03-.02.04-.05.07-.08ZM47.64,45.4s-.04-.06-.07-.08c-.01.01-.06.03-.06.04.01.03.04.06.06.09.03-.02.06-.03.07-.05ZM48.8,52.02l.07.05s.04-.06.06-.09c0-.01-.04-.03-.06-.04-.03.02-.04.05-.07.08ZM49.17,52.02l.07.05s.04-.06.06-.09c0-.01-.04-.03-.06-.04-.03.02-.04.05-.07.08ZM55.8,52.02l.07.05s.04-.06.06-.09c0-.01-.04-.03-.06-.04-.03.02-.04.05-.07.08ZM62.13,44.35s-.06.03-.06.04c.01.03.04.06.06.09.01-.01.06-.03.06-.04,0-.04-.03-.06-.06-.09ZM47.51,44.03l.07.05s.04-.06.06-.09c0-.01-.04-.03-.06-.04-.03.02-.04.05-.07.08ZM66.75,53.01s.04-.03.07-.05c-.04-.01-.08-.03-.13-.04-.01,0-.04.03-.06.04.04.02.08.04.11.05ZM46.91,43.85l-.07-.05s-.04.06-.06.09c0,.01.04.03.06.04.03-.03.04-.05.07-.08ZM47.22,43.53s-.06.03-.06.04c.01.03.04.06.06.09.01-.01.06-.03.06-.04-.01-.03-.04-.06-.06-.09ZM66.02,53.14s.04-.03.07-.05c-.04-.01-.08-.03-.13-.04-.01,0-.04.03-.06.04.03.02.07.04.11.05ZM50.4,42.61l-.07-.05s-.04.06-.06.09c0,.01.04.03.06.04.03-.03.06-.06.07-.08ZM67.68,53.32s-.08.03-.11.05c.01.01.04.04.06.04.04-.01.08-.03.13-.04-.03-.01-.04-.03-.07-.05ZM63.12,41.79l-.07-.05s-.04.06-.06.09c0,.01.04.03.06.04.01-.03.04-.05.07-.08ZM43.81,51.17s-.04-.04-.06-.04c-.04.01-.08.03-.13.04.01.01.04.04.06.04.04-.01.08-.03.13-.04ZM58.66,51.08l.07-.05s-.08-.03-.13-.04c-.01,0-.04.03-.06.04.03.02.07.04.11.05ZM73.74,53.99s-.06.03-.06.04c.01.03.04.06.06.09.01-.01.06-.03.06-.04-.01-.03-.04-.06-.06-.09ZM53.54,54.18l-.07-.05s-.04.06-.06.09c0,.01.04.03.06.04.03-.02.04-.05.07-.08ZM57.78,50.91s-.04-.06-.07-.08c-.01.01-.06.03-.06.04.01.03.04.06.06.09.03-.01.04-.03.07-.05ZM63.81,40.52s-.08.03-.11.05c.01.01.04.04.06.04.04-.01.08-.03.13-.04-.01-.02-.04-.03-.07-.05ZM53.4,55.19l.07.05s.04-.06.06-.09c0-.01-.04-.03-.06-.04-.03.02-.04.05-.07.08ZM68.29,50.75s-.04-.04-.06-.04c-.04.01-.08.03-.13.04.01.01.04.04.06.04.04,0,.08-.02.13-.04ZM51.45,39.26s-.06.03-.06.04c.01.03.04.06.06.09.01-.01.06-.03.06-.04-.01-.04-.04-.06-.06-.09ZM46.17,46.46l-.07-.05s-.04.06-.06.09c0,.01.04.03.06.04.03-.02.06-.05.07-.08ZM52.37,58.81s-.06.03-.06.04c.01.03.04.06.06.09.01-.01.06-.03.06-.04,0-.03-.03-.06-.06-.09ZM63.13,59.3s-.04-.04-.06-.04c-.04.01-.08.03-.13.04.01.01.04.04.06.04.06-.01.1-.03.13-.04ZM63.49,59.45s-.04-.06-.07-.08c-.01.01-.06.03-.06.04.01.03.04.06.06.09.03-.02.04-.03.07-.05ZM45.76,47.77l.07-.05s-.08-.03-.13-.04c-.01,0-.04.03-.06.04.04.02.08.04.11.05ZM66,60.46s-.06.03-.06.04c.01.03.04.06.06.09.01-.01.06-.03.06-.04-.01-.03-.04-.06-.06-.09ZM62.2,61.07l-.07-.05s-.04.06-.06.09c0,.01.04.03.06.04.03-.03.04-.06.07-.08ZM39.55,61.93s-.04-.06-.07-.08c-.01.01-.06.03-.06.04.01.03.04.06.06.09.01-.02.04-.03.07-.05ZM59.07,62.62s-.04-.06-.07-.08c-.01.01-.06.03-.06.04.01.03.04.06.06.09.01-.02.04-.03.07-.05ZM61.02,63.36s-.06.03-.06.04c.01.03.04.06.06.09.01-.01.06-.03.06-.04,0-.03-.03-.06-.06-.09ZM64.92,37.49s-.08.03-.11.05c.01.01.04.04.06.04.04-.01.08-.03.13-.04l-.07-.05ZM65.6,36.48s.08-.03.11-.05c-.01-.01-.04-.04-.06-.04-.04.01-.08.03-.13.04.03.02.04.03.07.05ZM47.92,48.36l-.07.05s.08.03.13.04c.01,0,.04-.03.06-.04-.03-.01-.07-.03-.11-.05ZM55.9,65.17s-.08.03-.11.05c.01.01.04.04.06.04.04-.01.08-.03.13-.04-.03-.02-.06-.03-.07-.05ZM64.96,65.2s-.04-.03-.07-.05c-.01.03-.04.06-.06.09,0,.01.04.03.06.04.03-.03.04-.06.07-.08ZM64.62,65.63s-.04-.04-.06-.04c-.04.01-.08.03-.13.04.01.01.04.04.06.04.04-.01.08-.03.13-.04ZM50.64,68.64s.04.06.07.08c.01-.01.06-.03.06-.04-.01-.03-.04-.06-.06-.09-.01.02-.04.03-.07.05ZM62.9,70.27s-.08.03-.11.05c.01.01.04.04.06.04.04-.01.08-.03.13-.04-.03-.02-.06-.03-.07-.05ZM45.5,70.47s.04.03.07.05c.01-.03.04-.06.06-.09,0-.01-.04-.03-.06-.04-.03.02-.06.05-.07.08ZM28.64,71.32s.04-.03.07-.05c-.04-.01-.08-.03-.13-.04-.01,0-.04.03-.06.04.04.02.07.04.11.05ZM45.47,72.37s-.04-.04-.06-.04c-.04.01-.08.03-.13.04.01.01.04.04.06.04.04,0,.08-.02.13-.04ZM39.51,75.18s.04-.03.07-.05c-.04-.01-.08-.03-.13-.04-.01,0-.04.03-.06.04.03.02.07.03.11.05ZM57.55,49.98l.07-.05s-.08-.03-.13-.04c-.01,0-.04.03-.06.04.03.02.07.04.11.05ZM71.21,19.61s-.04-.03-.07-.05c-.01.03-.04.06-.06.09,0,.01.04.03.06.04.03-.02.06-.05.07-.08ZM31.08,82.87s-.04-.06-.07-.08c-.01.01-.06.03-.06.04.01.03.04.06.06.09.01-.02.04-.04.07-.05ZM57.34,49.31s-.06.03-.06.04c.01.03.04.06.06.09.01-.01.06-.03.06-.04-.01-.04-.04-.07-.06-.09Z"/>
    <path class="st1" d="M78.71,52.33c.14-.23.24-.38.34-.53.17.07.32.14.49.21-.07.36-.42.34-.83.33Z"/>
    <path class="st1" d="M50.81,54.47c0-.18-.01-.27,0-.35.01-.05.08-.1.14-.13.03-.02.14,0,.15.02.04.05.08.14.06.18-.06.07-.15.13-.35.27Z"/>
    <path class="st1" d="M55.84,31.46c-.03-.15-.04-.24-.06-.33.06.05.13.1.18.16,0,.02-.06.07-.13.17Z"/>
    <path class="st1" d="M46.2,53.36s-.07.04-.11.06c-.01-.03-.04-.07-.03-.08.04-.02.1-.03.14-.04,0,.02,0,.04,0,.06Z"/>
    <path class="st1" d="M69.02,53.94s-.06.04-.06.04c-.04-.02-.07-.04-.11-.06.03-.02.06-.04.08-.06.01.03.06.05.08.08Z"/>
    <path class="st1" d="M48.96,70.24v-.14h.18c-.06.04-.11.09-.18.14Z"/>
    <path class="st1" d="M63.7,38.77s-.07.04-.11.06c-.01-.03-.04-.07-.03-.08.04-.02.1-.03.14-.04,0,.02,0,.04,0,.06Z"/>
    <path class="st1" d="M64.62,38.29v-.14c.06.03.1.06.15.09-.06.01-.11.02-.15.04Z"/>
    <path class="st1" d="M62.41,38.43v-.14l.18.14h-.18Z"/>
  </g>
</svg>